<?xml version="1.0" encoding="utf-8" standalone="no"?>
<!DOCTYPE svg PUBLIC "-//W3C//DTD SVG 1.1//EN"
  "http://www.w3.org/Graphics/SVG/1.1/DTD/svg11.dtd">
<!-- Created with matplotlib (https://matplotlib.org/) -->
<svg height="559.496pt" version="1.1" viewBox="0 0 702.68 559.496" width="702.68pt" xmlns="http://www.w3.org/2000/svg" xmlns:xlink="http://www.w3.org/1999/xlink">
 <defs>
  <style type="text/css">
*{stroke-linecap:butt;stroke-linejoin:round;}
  </style>
 </defs>
 <g id="figure_1">
  <g id="patch_1">
   <path d="M 0 559.496 
L 702.68 559.496 
L 702.68 0 
L 0 0 
z
" style="fill:#ffffff;"/>
  </g>
  <g id="axes_1">
   <g id="text_1">
    <!-- $V_0^*(s) = \mathrm{optimal\ value\ for\ state\ s\ when\ H=0}$ -->
    <defs>
     <path d="M 20.609375 0 
L 7.8125 72.90625 
L 17.484375 72.90625 
L 28.078125 10.203125 
L 63.484375 72.90625 
L 74.21875 72.90625 
L 32.078125 0 
z
" id="DejaVuSans-Oblique-86"/>
     <path d="M 47.015625 60.890625 
L 29.5 51.421875 
L 47.015625 41.890625 
L 44.1875 37.109375 
L 27.78125 47.015625 
L 27.78125 28.609375 
L 22.21875 28.609375 
L 22.21875 47.015625 
L 5.8125 37.109375 
L 2.984375 41.890625 
L 20.515625 51.421875 
L 2.984375 60.890625 
L 5.8125 65.71875 
L 22.21875 55.8125 
L 22.21875 74.21875 
L 27.78125 74.21875 
L 27.78125 55.8125 
L 44.1875 65.71875 
z
" id="DejaVuSans-42"/>
     <path d="M 31.78125 66.40625 
Q 24.171875 66.40625 20.328125 58.90625 
Q 16.5 51.421875 16.5 36.375 
Q 16.5 21.390625 20.328125 13.890625 
Q 24.171875 6.390625 31.78125 6.390625 
Q 39.453125 6.390625 43.28125 13.890625 
Q 47.125 21.390625 47.125 36.375 
Q 47.125 51.421875 43.28125 58.90625 
Q 39.453125 66.40625 31.78125 66.40625 
z
M 31.78125 74.21875 
Q 44.046875 74.21875 50.515625 64.515625 
Q 56.984375 54.828125 56.984375 36.375 
Q 56.984375 17.96875 50.515625 8.265625 
Q 44.046875 -1.421875 31.78125 -1.421875 
Q 19.53125 -1.421875 13.0625 8.265625 
Q 6.59375 17.96875 6.59375 36.375 
Q 6.59375 54.828125 13.0625 64.515625 
Q 19.53125 74.21875 31.78125 74.21875 
z
" id="DejaVuSans-48"/>
     <path d="M 31 75.875 
Q 24.46875 64.65625 21.28125 53.65625 
Q 18.109375 42.671875 18.109375 31.390625 
Q 18.109375 20.125 21.3125 9.0625 
Q 24.515625 -2 31 -13.1875 
L 23.1875 -13.1875 
Q 15.875 -1.703125 12.234375 9.375 
Q 8.59375 20.453125 8.59375 31.390625 
Q 8.59375 42.28125 12.203125 53.3125 
Q 15.828125 64.359375 23.1875 75.875 
z
" id="DejaVuSans-40"/>
     <path d="M 50 53.078125 
L 48.296875 44.578125 
Q 44.734375 46.53125 40.765625 47.5 
Q 36.8125 48.484375 32.625 48.484375 
Q 25.53125 48.484375 21.453125 46.0625 
Q 17.390625 43.65625 17.390625 39.5 
Q 17.390625 34.671875 26.859375 32.078125 
Q 27.59375 31.890625 27.9375 31.78125 
L 30.8125 30.90625 
Q 39.796875 28.421875 42.796875 25.6875 
Q 45.796875 22.953125 45.796875 18.21875 
Q 45.796875 9.515625 38.890625 4.046875 
Q 31.984375 -1.421875 20.796875 -1.421875 
Q 16.453125 -1.421875 11.671875 -0.578125 
Q 6.890625 0.25 1.125 2 
L 2.875 11.28125 
Q 7.8125 8.734375 12.59375 7.421875 
Q 17.390625 6.109375 21.78125 6.109375 
Q 28.375 6.109375 32.5 8.9375 
Q 36.625 11.765625 36.625 16.109375 
Q 36.625 20.796875 25.78125 23.6875 
L 24.859375 23.921875 
L 21.78125 24.703125 
Q 14.9375 26.515625 11.765625 29.46875 
Q 8.59375 32.421875 8.59375 37.015625 
Q 8.59375 45.75 15.15625 50.875 
Q 21.734375 56 33.015625 56 
Q 37.453125 56 41.671875 55.265625 
Q 45.90625 54.546875 50 53.078125 
z
" id="DejaVuSans-Oblique-115"/>
     <path d="M 8.015625 75.875 
L 15.828125 75.875 
Q 23.140625 64.359375 26.78125 53.3125 
Q 30.421875 42.28125 30.421875 31.390625 
Q 30.421875 20.453125 26.78125 9.375 
Q 23.140625 -1.703125 15.828125 -13.1875 
L 8.015625 -13.1875 
Q 14.5 -2 17.703125 9.0625 
Q 20.90625 20.125 20.90625 31.390625 
Q 20.90625 42.671875 17.703125 53.65625 
Q 14.5 64.65625 8.015625 75.875 
z
" id="DejaVuSans-41"/>
     <path d="M 10.59375 45.40625 
L 73.1875 45.40625 
L 73.1875 37.203125 
L 10.59375 37.203125 
z
M 10.59375 25.484375 
L 73.1875 25.484375 
L 73.1875 17.1875 
L 10.59375 17.1875 
z
" id="DejaVuSans-61"/>
     <path d="M 30.609375 48.390625 
Q 23.390625 48.390625 19.1875 42.75 
Q 14.984375 37.109375 14.984375 27.296875 
Q 14.984375 17.484375 19.15625 11.84375 
Q 23.34375 6.203125 30.609375 6.203125 
Q 37.796875 6.203125 41.984375 11.859375 
Q 46.1875 17.53125 46.1875 27.296875 
Q 46.1875 37.015625 41.984375 42.703125 
Q 37.796875 48.390625 30.609375 48.390625 
z
M 30.609375 56 
Q 42.328125 56 49.015625 48.375 
Q 55.71875 40.765625 55.71875 27.296875 
Q 55.71875 13.875 49.015625 6.21875 
Q 42.328125 -1.421875 30.609375 -1.421875 
Q 18.84375 -1.421875 12.171875 6.21875 
Q 5.515625 13.875 5.515625 27.296875 
Q 5.515625 40.765625 12.171875 48.375 
Q 18.84375 56 30.609375 56 
z
" id="DejaVuSans-111"/>
     <path d="M 18.109375 8.203125 
L 18.109375 -20.796875 
L 9.078125 -20.796875 
L 9.078125 54.6875 
L 18.109375 54.6875 
L 18.109375 46.390625 
Q 20.953125 51.265625 25.265625 53.625 
Q 29.59375 56 35.59375 56 
Q 45.5625 56 51.78125 48.09375 
Q 58.015625 40.1875 58.015625 27.296875 
Q 58.015625 14.40625 51.78125 6.484375 
Q 45.5625 -1.421875 35.59375 -1.421875 
Q 29.59375 -1.421875 25.265625 0.953125 
Q 20.953125 3.328125 18.109375 8.203125 
z
M 48.6875 27.296875 
Q 48.6875 37.203125 44.609375 42.84375 
Q 40.53125 48.484375 33.40625 48.484375 
Q 26.265625 48.484375 22.1875 42.84375 
Q 18.109375 37.203125 18.109375 27.296875 
Q 18.109375 17.390625 22.1875 11.75 
Q 26.265625 6.109375 33.40625 6.109375 
Q 40.53125 6.109375 44.609375 11.75 
Q 48.6875 17.390625 48.6875 27.296875 
z
" id="DejaVuSans-112"/>
     <path d="M 18.3125 70.21875 
L 18.3125 54.6875 
L 36.8125 54.6875 
L 36.8125 47.703125 
L 18.3125 47.703125 
L 18.3125 18.015625 
Q 18.3125 11.328125 20.140625 9.421875 
Q 21.96875 7.515625 27.59375 7.515625 
L 36.8125 7.515625 
L 36.8125 0 
L 27.59375 0 
Q 17.1875 0 13.234375 3.875 
Q 9.28125 7.765625 9.28125 18.015625 
L 9.28125 47.703125 
L 2.6875 47.703125 
L 2.6875 54.6875 
L 9.28125 54.6875 
L 9.28125 70.21875 
z
" id="DejaVuSans-116"/>
     <path d="M 9.421875 54.6875 
L 18.40625 54.6875 
L 18.40625 0 
L 9.421875 0 
z
M 9.421875 75.984375 
L 18.40625 75.984375 
L 18.40625 64.59375 
L 9.421875 64.59375 
z
" id="DejaVuSans-105"/>
     <path d="M 52 44.1875 
Q 55.375 50.25 60.0625 53.125 
Q 64.75 56 71.09375 56 
Q 79.640625 56 84.28125 50.015625 
Q 88.921875 44.046875 88.921875 33.015625 
L 88.921875 0 
L 79.890625 0 
L 79.890625 32.71875 
Q 79.890625 40.578125 77.09375 44.375 
Q 74.3125 48.1875 68.609375 48.1875 
Q 61.625 48.1875 57.5625 43.546875 
Q 53.515625 38.921875 53.515625 30.90625 
L 53.515625 0 
L 44.484375 0 
L 44.484375 32.71875 
Q 44.484375 40.625 41.703125 44.40625 
Q 38.921875 48.1875 33.109375 48.1875 
Q 26.21875 48.1875 22.15625 43.53125 
Q 18.109375 38.875 18.109375 30.90625 
L 18.109375 0 
L 9.078125 0 
L 9.078125 54.6875 
L 18.109375 54.6875 
L 18.109375 46.1875 
Q 21.1875 51.21875 25.484375 53.609375 
Q 29.78125 56 35.6875 56 
Q 41.65625 56 45.828125 52.96875 
Q 50 49.953125 52 44.1875 
z
" id="DejaVuSans-109"/>
     <path d="M 34.28125 27.484375 
Q 23.390625 27.484375 19.1875 25 
Q 14.984375 22.515625 14.984375 16.5 
Q 14.984375 11.71875 18.140625 8.90625 
Q 21.296875 6.109375 26.703125 6.109375 
Q 34.1875 6.109375 38.703125 11.40625 
Q 43.21875 16.703125 43.21875 25.484375 
L 43.21875 27.484375 
z
M 52.203125 31.203125 
L 52.203125 0 
L 43.21875 0 
L 43.21875 8.296875 
Q 40.140625 3.328125 35.546875 0.953125 
Q 30.953125 -1.421875 24.3125 -1.421875 
Q 15.921875 -1.421875 10.953125 3.296875 
Q 6 8.015625 6 15.921875 
Q 6 25.140625 12.171875 29.828125 
Q 18.359375 34.515625 30.609375 34.515625 
L 43.21875 34.515625 
L 43.21875 35.40625 
Q 43.21875 41.609375 39.140625 45 
Q 35.0625 48.390625 27.6875 48.390625 
Q 23 48.390625 18.546875 47.265625 
Q 14.109375 46.140625 10.015625 43.890625 
L 10.015625 52.203125 
Q 14.9375 54.109375 19.578125 55.046875 
Q 24.21875 56 28.609375 56 
Q 40.484375 56 46.34375 49.84375 
Q 52.203125 43.703125 52.203125 31.203125 
z
" id="DejaVuSans-97"/>
     <path d="M 9.421875 75.984375 
L 18.40625 75.984375 
L 18.40625 0 
L 9.421875 0 
z
" id="DejaVuSans-108"/>
     <path d="M 2.984375 54.6875 
L 12.5 54.6875 
L 29.59375 8.796875 
L 46.6875 54.6875 
L 56.203125 54.6875 
L 35.6875 0 
L 23.484375 0 
z
" id="DejaVuSans-118"/>
     <path d="M 8.5 21.578125 
L 8.5 54.6875 
L 17.484375 54.6875 
L 17.484375 21.921875 
Q 17.484375 14.15625 20.5 10.265625 
Q 23.53125 6.390625 29.59375 6.390625 
Q 36.859375 6.390625 41.078125 11.03125 
Q 45.3125 15.671875 45.3125 23.6875 
L 45.3125 54.6875 
L 54.296875 54.6875 
L 54.296875 0 
L 45.3125 0 
L 45.3125 8.40625 
Q 42.046875 3.421875 37.71875 1 
Q 33.40625 -1.421875 27.6875 -1.421875 
Q 18.265625 -1.421875 13.375 4.4375 
Q 8.5 10.296875 8.5 21.578125 
z
M 31.109375 56 
z
" id="DejaVuSans-117"/>
     <path d="M 56.203125 29.59375 
L 56.203125 25.203125 
L 14.890625 25.203125 
Q 15.484375 15.921875 20.484375 11.0625 
Q 25.484375 6.203125 34.421875 6.203125 
Q 39.59375 6.203125 44.453125 7.46875 
Q 49.3125 8.734375 54.109375 11.28125 
L 54.109375 2.78125 
Q 49.265625 0.734375 44.1875 -0.34375 
Q 39.109375 -1.421875 33.890625 -1.421875 
Q 20.796875 -1.421875 13.15625 6.1875 
Q 5.515625 13.8125 5.515625 26.8125 
Q 5.515625 40.234375 12.765625 48.109375 
Q 20.015625 56 32.328125 56 
Q 43.359375 56 49.78125 48.890625 
Q 56.203125 41.796875 56.203125 29.59375 
z
M 47.21875 32.234375 
Q 47.125 39.59375 43.09375 43.984375 
Q 39.0625 48.390625 32.421875 48.390625 
Q 24.90625 48.390625 20.390625 44.140625 
Q 15.875 39.890625 15.1875 32.171875 
z
" id="DejaVuSans-101"/>
     <path d="M 37.109375 75.984375 
L 37.109375 68.5 
L 28.515625 68.5 
Q 23.6875 68.5 21.796875 66.546875 
Q 19.921875 64.59375 19.921875 59.515625 
L 19.921875 54.6875 
L 34.71875 54.6875 
L 34.71875 47.703125 
L 19.921875 47.703125 
L 19.921875 0 
L 10.890625 0 
L 10.890625 47.703125 
L 2.296875 47.703125 
L 2.296875 54.6875 
L 10.890625 54.6875 
L 10.890625 58.5 
Q 10.890625 67.625 15.140625 71.796875 
Q 19.390625 75.984375 28.609375 75.984375 
z
" id="DejaVuSans-102"/>
     <path d="M 41.109375 46.296875 
Q 39.59375 47.171875 37.8125 47.578125 
Q 36.03125 48 33.890625 48 
Q 26.265625 48 22.1875 43.046875 
Q 18.109375 38.09375 18.109375 28.8125 
L 18.109375 0 
L 9.078125 0 
L 9.078125 54.6875 
L 18.109375 54.6875 
L 18.109375 46.1875 
Q 20.953125 51.171875 25.484375 53.578125 
Q 30.03125 56 36.53125 56 
Q 37.453125 56 38.578125 55.875 
Q 39.703125 55.765625 41.0625 55.515625 
z
" id="DejaVuSans-114"/>
     <path d="M 44.28125 53.078125 
L 44.28125 44.578125 
Q 40.484375 46.53125 36.375 47.5 
Q 32.28125 48.484375 27.875 48.484375 
Q 21.1875 48.484375 17.84375 46.4375 
Q 14.5 44.390625 14.5 40.28125 
Q 14.5 37.15625 16.890625 35.375 
Q 19.28125 33.59375 26.515625 31.984375 
L 29.59375 31.296875 
Q 39.15625 29.25 43.1875 25.515625 
Q 47.21875 21.78125 47.21875 15.09375 
Q 47.21875 7.46875 41.1875 3.015625 
Q 35.15625 -1.421875 24.609375 -1.421875 
Q 20.21875 -1.421875 15.453125 -0.5625 
Q 10.6875 0.296875 5.421875 2 
L 5.421875 11.28125 
Q 10.40625 8.6875 15.234375 7.390625 
Q 20.0625 6.109375 24.8125 6.109375 
Q 31.15625 6.109375 34.5625 8.28125 
Q 37.984375 10.453125 37.984375 14.40625 
Q 37.984375 18.0625 35.515625 20.015625 
Q 33.0625 21.96875 24.703125 23.78125 
L 21.578125 24.515625 
Q 13.234375 26.265625 9.515625 29.90625 
Q 5.8125 33.546875 5.8125 39.890625 
Q 5.8125 47.609375 11.28125 51.796875 
Q 16.75 56 26.8125 56 
Q 31.78125 56 36.171875 55.265625 
Q 40.578125 54.546875 44.28125 53.078125 
z
" id="DejaVuSans-115"/>
     <path d="M 4.203125 54.6875 
L 13.1875 54.6875 
L 24.421875 12.015625 
L 35.59375 54.6875 
L 46.1875 54.6875 
L 57.421875 12.015625 
L 68.609375 54.6875 
L 77.59375 54.6875 
L 63.28125 0 
L 52.6875 0 
L 40.921875 44.828125 
L 29.109375 0 
L 18.5 0 
z
" id="DejaVuSans-119"/>
     <path d="M 54.890625 33.015625 
L 54.890625 0 
L 45.90625 0 
L 45.90625 32.71875 
Q 45.90625 40.484375 42.875 44.328125 
Q 39.84375 48.1875 33.796875 48.1875 
Q 26.515625 48.1875 22.3125 43.546875 
Q 18.109375 38.921875 18.109375 30.90625 
L 18.109375 0 
L 9.078125 0 
L 9.078125 75.984375 
L 18.109375 75.984375 
L 18.109375 46.1875 
Q 21.34375 51.125 25.703125 53.5625 
Q 30.078125 56 35.796875 56 
Q 45.21875 56 50.046875 50.171875 
Q 54.890625 44.34375 54.890625 33.015625 
z
" id="DejaVuSans-104"/>
     <path d="M 54.890625 33.015625 
L 54.890625 0 
L 45.90625 0 
L 45.90625 32.71875 
Q 45.90625 40.484375 42.875 44.328125 
Q 39.84375 48.1875 33.796875 48.1875 
Q 26.515625 48.1875 22.3125 43.546875 
Q 18.109375 38.921875 18.109375 30.90625 
L 18.109375 0 
L 9.078125 0 
L 9.078125 54.6875 
L 18.109375 54.6875 
L 18.109375 46.1875 
Q 21.34375 51.125 25.703125 53.5625 
Q 30.078125 56 35.796875 56 
Q 45.21875 56 50.046875 50.171875 
Q 54.890625 44.34375 54.890625 33.015625 
z
" id="DejaVuSans-110"/>
     <path d="M 9.8125 72.90625 
L 19.671875 72.90625 
L 19.671875 43.015625 
L 55.515625 43.015625 
L 55.515625 72.90625 
L 65.375 72.90625 
L 65.375 0 
L 55.515625 0 
L 55.515625 34.71875 
L 19.671875 34.71875 
L 19.671875 0 
L 9.8125 0 
z
" id="DejaVuSans-72"/>
    </defs>
    <g transform="translate(7.2 224.64)scale(0.28 -0.28)">
     <use transform="translate(0 0.765625)" xlink:href="#DejaVuSans-Oblique-86"/>
     <use transform="translate(89.062669 39.046875)scale(0.7)" xlink:href="#DejaVuSans-42"/>
     <use transform="translate(68.408203 -26.578125)scale(0.7)" xlink:href="#DejaVuSans-48"/>
     <use transform="translate(140.43474 0.765625)" xlink:href="#DejaVuSans-40"/>
     <use transform="translate(179.448411 0.765625)" xlink:href="#DejaVuSans-Oblique-115"/>
     <use transform="translate(231.548021 0.765625)" xlink:href="#DejaVuSans-41"/>
     <use transform="translate(290.044115 0.765625)" xlink:href="#DejaVuSans-61"/>
     <use transform="translate(393.315599 0.765625)" xlink:href="#DejaVuSans-111"/>
     <use transform="translate(454.49724 0.765625)" xlink:href="#DejaVuSans-112"/>
     <use transform="translate(517.973802 0.765625)" xlink:href="#DejaVuSans-116"/>
     <use transform="translate(557.182786 0.765625)" xlink:href="#DejaVuSans-105"/>
     <use transform="translate(584.96599 0.765625)" xlink:href="#DejaVuSans-109"/>
     <use transform="translate(682.378099 0.765625)" xlink:href="#DejaVuSans-97"/>
     <use transform="translate(743.657396 0.765625)" xlink:href="#DejaVuSans-108"/>
     <use transform="translate(803.910977 0.765625)" xlink:href="#DejaVuSans-118"/>
     <use transform="translate(863.090665 0.765625)" xlink:href="#DejaVuSans-97"/>
     <use transform="translate(924.369962 0.765625)" xlink:href="#DejaVuSans-108"/>
     <use transform="translate(952.153165 0.765625)" xlink:href="#DejaVuSans-117"/>
     <use transform="translate(1015.532071 0.765625)" xlink:href="#DejaVuSans-101"/>
     <use transform="translate(1109.525887 0.765625)" xlink:href="#DejaVuSans-102"/>
     <use transform="translate(1144.730965 0.765625)" xlink:href="#DejaVuSans-111"/>
     <use transform="translate(1205.912606 0.765625)" xlink:href="#DejaVuSans-114"/>
     <use transform="translate(1279.496265 0.765625)" xlink:href="#DejaVuSans-115"/>
     <use transform="translate(1331.595875 0.765625)" xlink:href="#DejaVuSans-116"/>
     <use transform="translate(1370.804859 0.765625)" xlink:href="#DejaVuSans-97"/>
     <use transform="translate(1432.084156 0.765625)" xlink:href="#DejaVuSans-116"/>
     <use transform="translate(1471.29314 0.765625)" xlink:href="#DejaVuSans-101"/>
     <use transform="translate(1565.286956 0.765625)" xlink:href="#DejaVuSans-115"/>
     <use transform="translate(1649.856944 0.765625)" xlink:href="#DejaVuSans-119"/>
     <use transform="translate(1731.644054 0.765625)" xlink:href="#DejaVuSans-104"/>
     <use transform="translate(1795.02296 0.765625)" xlink:href="#DejaVuSans-101"/>
     <use transform="translate(1856.546397 0.765625)" xlink:href="#DejaVuSans-110"/>
     <use transform="translate(1952.395682 0.765625)" xlink:href="#DejaVuSans-72"/>
     <use transform="translate(2047.073416 0.765625)" xlink:href="#DejaVuSans-61"/>
     <use transform="translate(2150.344901 0.765625)" xlink:href="#DejaVuSans-48"/>
    </g>
   </g>
   <g id="text_2">
    <!-- $V_0^*(s) = 0 \ \forall s$ -->
    <defs>
     <path d="M 34.1875 9.71875 
L 47.609375 46 
L 20.796875 46 
z
M 28.609375 0 
L 0.78125 72.90625 
L 11.1875 72.90625 
L 17.828125 54.203125 
L 50.6875 54.203125 
L 57.328125 72.90625 
L 67.578125 72.90625 
L 39.796875 0 
z
" id="DejaVuSans-8704"/>
    </defs>
    <g transform="translate(74.16 268.128)scale(0.28 -0.28)">
     <use transform="translate(0 0.765625)" xlink:href="#DejaVuSans-Oblique-86"/>
     <use transform="translate(89.062669 39.046875)scale(0.7)" xlink:href="#DejaVuSans-42"/>
     <use transform="translate(68.408203 -26.578125)scale(0.7)" xlink:href="#DejaVuSans-48"/>
     <use transform="translate(140.43474 0.765625)" xlink:href="#DejaVuSans-40"/>
     <use transform="translate(179.448411 0.765625)" xlink:href="#DejaVuSans-Oblique-115"/>
     <use transform="translate(231.548021 0.765625)" xlink:href="#DejaVuSans-41"/>
     <use transform="translate(290.044115 0.765625)" xlink:href="#DejaVuSans-61"/>
     <use transform="translate(393.315599 0.765625)" xlink:href="#DejaVuSans-48"/>
     <use transform="translate(489.409024 0.765625)" xlink:href="#DejaVuSans-8704"/>
     <use transform="translate(557.817227 0.765625)" xlink:href="#DejaVuSans-Oblique-115"/>
    </g>
   </g>
   <g id="text_3">
    <!-- $V_1^*(s) = = \mathrm{optimal\ value\ for\ state\ s\ when\ H=1}$ -->
    <defs>
     <path d="M 12.40625 8.296875 
L 28.515625 8.296875 
L 28.515625 63.921875 
L 10.984375 60.40625 
L 10.984375 69.390625 
L 28.421875 72.90625 
L 38.28125 72.90625 
L 38.28125 8.296875 
L 54.390625 8.296875 
L 54.390625 0 
L 12.40625 0 
z
" id="DejaVuSans-49"/>
    </defs>
    <g transform="translate(7.2 311.616)scale(0.28 -0.28)">
     <use transform="translate(0 0.765625)" xlink:href="#DejaVuSans-Oblique-86"/>
     <use transform="translate(89.062669 39.046875)scale(0.7)" xlink:href="#DejaVuSans-42"/>
     <use transform="translate(68.408203 -26.578125)scale(0.7)" xlink:href="#DejaVuSans-49"/>
     <use transform="translate(140.43474 0.765625)" xlink:href="#DejaVuSans-40"/>
     <use transform="translate(179.448411 0.765625)" xlink:href="#DejaVuSans-Oblique-115"/>
     <use transform="translate(231.548021 0.765625)" xlink:href="#DejaVuSans-41"/>
     <use transform="translate(290.044115 0.765625)" xlink:href="#DejaVuSans-61"/>
     <use transform="translate(412.798021 0.765625)" xlink:href="#DejaVuSans-61"/>
     <use transform="translate(516.069505 0.765625)" xlink:href="#DejaVuSans-111"/>
     <use transform="translate(577.251146 0.765625)" xlink:href="#DejaVuSans-112"/>
     <use transform="translate(640.727708 0.765625)" xlink:href="#DejaVuSans-116"/>
     <use transform="translate(679.936693 0.765625)" xlink:href="#DejaVuSans-105"/>
     <use transform="translate(707.719896 0.765625)" xlink:href="#DejaVuSans-109"/>
     <use transform="translate(805.132005 0.765625)" xlink:href="#DejaVuSans-97"/>
     <use transform="translate(866.411302 0.765625)" xlink:href="#DejaVuSans-108"/>
     <use transform="translate(926.664884 0.765625)" xlink:href="#DejaVuSans-118"/>
     <use transform="translate(985.844571 0.765625)" xlink:href="#DejaVuSans-97"/>
     <use transform="translate(1047.123868 0.765625)" xlink:href="#DejaVuSans-108"/>
     <use transform="translate(1074.907071 0.765625)" xlink:href="#DejaVuSans-117"/>
     <use transform="translate(1138.285977 0.765625)" xlink:href="#DejaVuSans-101"/>
     <use transform="translate(1232.279793 0.765625)" xlink:href="#DejaVuSans-102"/>
     <use transform="translate(1267.484871 0.765625)" xlink:href="#DejaVuSans-111"/>
     <use transform="translate(1328.666512 0.765625)" xlink:href="#DejaVuSans-114"/>
     <use transform="translate(1402.250172 0.765625)" xlink:href="#DejaVuSans-115"/>
     <use transform="translate(1454.349781 0.765625)" xlink:href="#DejaVuSans-116"/>
     <use transform="translate(1493.558765 0.765625)" xlink:href="#DejaVuSans-97"/>
     <use transform="translate(1554.838062 0.765625)" xlink:href="#DejaVuSans-116"/>
     <use transform="translate(1594.047047 0.765625)" xlink:href="#DejaVuSans-101"/>
     <use transform="translate(1688.040863 0.765625)" xlink:href="#DejaVuSans-115"/>
     <use transform="translate(1772.61085 0.765625)" xlink:href="#DejaVuSans-119"/>
     <use transform="translate(1854.39796 0.765625)" xlink:href="#DejaVuSans-104"/>
     <use transform="translate(1917.776866 0.765625)" xlink:href="#DejaVuSans-101"/>
     <use transform="translate(1979.300304 0.765625)" xlink:href="#DejaVuSans-110"/>
     <use transform="translate(2075.149588 0.765625)" xlink:href="#DejaVuSans-72"/>
     <use transform="translate(2169.827323 0.765625)" xlink:href="#DejaVuSans-61"/>
     <use transform="translate(2273.098807 0.765625)" xlink:href="#DejaVuSans-49"/>
    </g>
   </g>
   <g id="text_4">
    <!-- $V_1^*(s) = \max_a \sum_{s'} P(s'|s,a)(R(s,a,s')+ \gamma V_0^*(s'))$ -->
    <defs>
     <path d="M 54.890625 54.6875 
L 35.109375 28.078125 
L 55.90625 0 
L 45.3125 0 
L 29.390625 21.484375 
L 13.484375 0 
L 2.875 0 
L 24.125 28.609375 
L 4.6875 54.6875 
L 15.28125 54.6875 
L 29.78125 35.203125 
L 44.28125 54.6875 
z
" id="DejaVuSans-120"/>
     <path d="M 53.71875 31.203125 
L 47.609375 0 
L 38.625 0 
L 40.28125 8.296875 
Q 36.328125 3.421875 31.265625 1 
Q 26.21875 -1.421875 20.015625 -1.421875 
Q 13.03125 -1.421875 8.5625 2.84375 
Q 4.109375 7.125 4.109375 13.8125 
Q 4.109375 23.390625 11.75 28.953125 
Q 19.390625 34.515625 32.8125 34.515625 
L 45.3125 34.515625 
L 45.796875 36.921875 
Q 45.90625 37.3125 45.953125 37.765625 
Q 46 38.234375 46 39.203125 
Q 46 43.5625 42.453125 45.96875 
Q 38.921875 48.390625 32.515625 48.390625 
Q 28.125 48.390625 23.5 47.265625 
Q 18.890625 46.140625 14.015625 43.890625 
L 15.578125 52.203125 
Q 20.65625 54.109375 25.515625 55.046875 
Q 30.375 56 34.90625 56 
Q 44.578125 56 49.625 51.796875 
Q 54.6875 47.609375 54.6875 39.59375 
Q 54.6875 37.984375 54.4375 35.8125 
Q 54.203125 33.640625 53.71875 31.203125 
z
M 44 27.484375 
L 35.015625 27.484375 
Q 23.96875 27.484375 18.671875 24.53125 
Q 13.375 21.578125 13.375 15.375 
Q 13.375 11.078125 16.078125 8.640625 
Q 18.796875 6.203125 23.578125 6.203125 
Q 30.90625 6.203125 36.375 11.453125 
Q 41.84375 16.703125 43.609375 25.484375 
z
" id="DejaVuSans-Oblique-97"/>
     <path d="M 3.8125 101.703125 
L 90.671875 101.703125 
L 90.671875 88.375 
L 24.46875 88.375 
L 70.84375 38.875 
L 22.953125 -13.875 
L 92.484375 -13.875 
L 92.484375 -27.15625 
L 1.703125 -27.15625 
L 1.703125 -16.84375 
L 51.8125 38.484375 
L 3.8125 89.5 
z
" id="DejaVuSansDisplay-8721"/>
     <path d="M 3.515625 5.421875 
Q 2.875 5.609375 2.875 6.390625 
L 15.09375 51.8125 
Q 15.671875 53.65625 17.078125 54.78125 
Q 18.5 55.90625 20.3125 55.90625 
Q 22.65625 55.90625 24.4375 54.359375 
Q 26.21875 52.828125 26.21875 50.484375 
Q 26.21875 49.46875 25.6875 48.1875 
L 7.625 4.984375 
Q 7.28125 4.296875 6.6875 4.296875 
Q 6.15625 4.296875 5 4.78125 
Q 3.859375 5.28125 3.515625 5.421875 
z
" id="Cmsy10-48"/>
     <path d="M 16.890625 72.90625 
L 39.703125 72.90625 
Q 49.65625 72.90625 54.875 68.265625 
Q 60.109375 63.625 60.109375 54.6875 
Q 60.109375 42.671875 52.390625 35.984375 
Q 44.671875 29.296875 30.71875 29.296875 
L 18.3125 29.296875 
L 12.59375 0 
L 2.6875 0 
z
M 25.203125 64.796875 
L 19.921875 37.40625 
L 32.328125 37.40625 
Q 40.71875 37.40625 45.203125 41.703125 
Q 49.703125 46 49.703125 54 
Q 49.703125 59.125 46.65625 61.953125 
Q 43.609375 64.796875 38.09375 64.796875 
z
" id="DejaVuSans-Oblique-80"/>
     <path d="M 21 76.421875 
L 21 -23.578125 
L 12.703125 -23.578125 
L 12.703125 76.421875 
z
" id="DejaVuSans-124"/>
     <path d="M 11.71875 12.40625 
L 22.015625 12.40625 
L 22.015625 4 
L 14.015625 -11.625 
L 7.71875 -11.625 
L 11.71875 4 
z
" id="DejaVuSans-44"/>
     <path d="M 25.203125 64.796875 
L 20.21875 38.921875 
L 32.90625 38.921875 
Q 40.375 38.921875 44.984375 43.046875 
Q 49.609375 47.171875 49.609375 53.8125 
Q 49.609375 59.125 46.5 61.953125 
Q 43.40625 64.796875 37.59375 64.796875 
z
M 43.3125 35.015625 
Q 46.4375 34.28125 48.515625 31.390625 
Q 50.59375 28.515625 53.328125 19.921875 
L 59.515625 0 
L 49.125 0 
L 43.40625 18.703125 
Q 41.21875 25.921875 38.328125 28.359375 
Q 35.453125 30.8125 29.5 30.8125 
L 18.609375 30.8125 
L 12.59375 0 
L 2.6875 0 
L 16.890625 72.90625 
L 39.109375 72.90625 
Q 49.21875 72.90625 54.609375 68.328125 
Q 60.015625 63.765625 60.015625 55.171875 
Q 60.015625 47.5625 55.421875 41.984375 
Q 50.828125 36.421875 43.3125 35.015625 
z
" id="DejaVuSans-Oblique-82"/>
     <path d="M 46 62.703125 
L 46 35.5 
L 73.1875 35.5 
L 73.1875 27.203125 
L 46 27.203125 
L 46 0 
L 37.796875 0 
L 37.796875 27.203125 
L 10.59375 27.203125 
L 10.59375 35.5 
L 37.796875 35.5 
L 37.796875 62.703125 
z
" id="DejaVuSans-43"/>
     <path d="M 23.296875 46.09375 
L 28.71875 12.3125 
L 54 54.6875 
L 63.53125 54.6875 
L 30.8125 0 
L 26.765625 -20.796875 
L 17.78125 -20.796875 
L 21.828125 0 
L 15.4375 40.828125 
Q 14.453125 46.96875 9.8125 46.96875 
L 7.421875 46.96875 
L 8.890625 54.6875 
L 12.3125 54.6875 
Q 21.921875 54.6875 23.296875 46.09375 
z
" id="DejaVuSans-Oblique-947"/>
    </defs>
    <g transform="translate(74.16 355.104)scale(0.28 -0.28)">
     <use transform="translate(0 0.546875)" xlink:href="#DejaVuSans-Oblique-86"/>
     <use transform="translate(89.062669 38.828125)scale(0.7)" xlink:href="#DejaVuSans-42"/>
     <use transform="translate(68.408203 -26.796875)scale(0.7)" xlink:href="#DejaVuSans-49"/>
     <use transform="translate(140.43474 0.546875)" xlink:href="#DejaVuSans-40"/>
     <use transform="translate(179.448411 0.546875)" xlink:href="#DejaVuSans-Oblique-115"/>
     <use transform="translate(231.548021 0.546875)" xlink:href="#DejaVuSans-41"/>
     <use transform="translate(290.044115 0.546875)" xlink:href="#DejaVuSans-61"/>
     <use transform="translate(393.315599 19.296875)" xlink:href="#DejaVuSans-109"/>
     <use transform="translate(490.727708 19.296875)" xlink:href="#DejaVuSans-97"/>
     <use transform="translate(552.007005 19.296875)" xlink:href="#DejaVuSans-120"/>
     <use transform="translate(484.315599 -40.075)scale(0.7)" xlink:href="#DejaVuSans-Oblique-97"/>
     <use transform="translate(611.186693 19.296875)" xlink:href="#DejaVuSansDisplay-8721"/>
     <use transform="translate(629.186693 -80.800313)scale(0.7)" xlink:href="#DejaVuSans-Oblique-115"/>
     <use transform="translate(668.911346 -54.003438)scale(0.49)" xlink:href="#Cmsy10-48"/>
     <use transform="translate(701.952318 0.546875)" xlink:href="#DejaVuSans-Oblique-80"/>
     <use transform="translate(762.255052 0.546875)" xlink:href="#DejaVuSans-40"/>
     <use transform="translate(801.268724 0.546875)" xlink:href="#DejaVuSans-Oblique-115"/>
     <use transform="translate(858.018229 38.828125)scale(0.7)" xlink:href="#Cmsy10-48"/>
     <use transform="translate(879.995768 0.546875)" xlink:href="#DejaVuSans-124"/>
     <use transform="translate(913.687174 0.546875)" xlink:href="#DejaVuSans-Oblique-115"/>
     <use transform="translate(965.786784 0.546875)" xlink:href="#DejaVuSans-44"/>
     <use transform="translate(1017.056315 0.546875)" xlink:href="#DejaVuSans-Oblique-97"/>
     <use transform="translate(1078.335612 0.546875)" xlink:href="#DejaVuSans-41"/>
     <use transform="translate(1117.349284 0.546875)" xlink:href="#DejaVuSans-40"/>
     <use transform="translate(1156.362956 0.546875)" xlink:href="#DejaVuSans-Oblique-82"/>
     <use transform="translate(1225.845378 0.546875)" xlink:href="#DejaVuSans-40"/>
     <use transform="translate(1264.859049 0.546875)" xlink:href="#DejaVuSans-Oblique-115"/>
     <use transform="translate(1316.958659 0.546875)" xlink:href="#DejaVuSans-44"/>
     <use transform="translate(1368.22819 0.546875)" xlink:href="#DejaVuSans-Oblique-97"/>
     <use transform="translate(1429.507487 0.546875)" xlink:href="#DejaVuSans-44"/>
     <use transform="translate(1480.777018 0.546875)" xlink:href="#DejaVuSans-Oblique-115"/>
     <use transform="translate(1537.526523 38.828125)scale(0.7)" xlink:href="#Cmsy10-48"/>
     <use transform="translate(1559.504062 0.546875)" xlink:href="#DejaVuSans-41"/>
     <use transform="translate(1618.000156 0.546875)" xlink:href="#DejaVuSans-43"/>
     <use transform="translate(1721.271641 0.546875)" xlink:href="#DejaVuSans-Oblique-947"/>
     <use transform="translate(1780.451328 0.546875)" xlink:href="#DejaVuSans-Oblique-86"/>
     <use transform="translate(1869.513997 38.828125)scale(0.7)" xlink:href="#DejaVuSans-42"/>
     <use transform="translate(1848.859531 -26.796875)scale(0.7)" xlink:href="#DejaVuSans-48"/>
     <use transform="translate(1920.886068 0.546875)" xlink:href="#DejaVuSans-40"/>
     <use transform="translate(1959.89974 0.546875)" xlink:href="#DejaVuSans-Oblique-115"/>
     <use transform="translate(2016.649245 38.828125)scale(0.7)" xlink:href="#Cmsy10-48"/>
     <use transform="translate(2038.626784 0.546875)" xlink:href="#DejaVuSans-41"/>
     <use transform="translate(2077.640456 0.546875)" xlink:href="#DejaVuSans-41"/>
    </g>
   </g>
   <g id="text_5">
    <!-- $V_2^*(s) = \mathrm{optimal\ value\ for\ state\ s\ when\ H=2}$ -->
    <defs>
     <path d="M 19.1875 8.296875 
L 53.609375 8.296875 
L 53.609375 0 
L 7.328125 0 
L 7.328125 8.296875 
Q 12.9375 14.109375 22.625 23.890625 
Q 32.328125 33.6875 34.8125 36.53125 
Q 39.546875 41.84375 41.421875 45.53125 
Q 43.3125 49.21875 43.3125 52.78125 
Q 43.3125 58.59375 39.234375 62.25 
Q 35.15625 65.921875 28.609375 65.921875 
Q 23.96875 65.921875 18.8125 64.3125 
Q 13.671875 62.703125 7.8125 59.421875 
L 7.8125 69.390625 
Q 13.765625 71.78125 18.9375 73 
Q 24.125 74.21875 28.421875 74.21875 
Q 39.75 74.21875 46.484375 68.546875 
Q 53.21875 62.890625 53.21875 53.421875 
Q 53.21875 48.921875 51.53125 44.890625 
Q 49.859375 40.875 45.40625 35.40625 
Q 44.1875 33.984375 37.640625 27.21875 
Q 31.109375 20.453125 19.1875 8.296875 
z
" id="DejaVuSans-50"/>
    </defs>
    <g transform="translate(7.2 398.592)scale(0.28 -0.28)">
     <use transform="translate(0 0.765625)" xlink:href="#DejaVuSans-Oblique-86"/>
     <use transform="translate(89.062669 39.046875)scale(0.7)" xlink:href="#DejaVuSans-42"/>
     <use transform="translate(68.408203 -26.578125)scale(0.7)" xlink:href="#DejaVuSans-50"/>
     <use transform="translate(140.43474 0.765625)" xlink:href="#DejaVuSans-40"/>
     <use transform="translate(179.448411 0.765625)" xlink:href="#DejaVuSans-Oblique-115"/>
     <use transform="translate(231.548021 0.765625)" xlink:href="#DejaVuSans-41"/>
     <use transform="translate(290.044115 0.765625)" xlink:href="#DejaVuSans-61"/>
     <use transform="translate(393.315599 0.765625)" xlink:href="#DejaVuSans-111"/>
     <use transform="translate(454.49724 0.765625)" xlink:href="#DejaVuSans-112"/>
     <use transform="translate(517.973802 0.765625)" xlink:href="#DejaVuSans-116"/>
     <use transform="translate(557.182786 0.765625)" xlink:href="#DejaVuSans-105"/>
     <use transform="translate(584.96599 0.765625)" xlink:href="#DejaVuSans-109"/>
     <use transform="translate(682.378099 0.765625)" xlink:href="#DejaVuSans-97"/>
     <use transform="translate(743.657396 0.765625)" xlink:href="#DejaVuSans-108"/>
     <use transform="translate(803.910977 0.765625)" xlink:href="#DejaVuSans-118"/>
     <use transform="translate(863.090665 0.765625)" xlink:href="#DejaVuSans-97"/>
     <use transform="translate(924.369962 0.765625)" xlink:href="#DejaVuSans-108"/>
     <use transform="translate(952.153165 0.765625)" xlink:href="#DejaVuSans-117"/>
     <use transform="translate(1015.532071 0.765625)" xlink:href="#DejaVuSans-101"/>
     <use transform="translate(1109.525887 0.765625)" xlink:href="#DejaVuSans-102"/>
     <use transform="translate(1144.730965 0.765625)" xlink:href="#DejaVuSans-111"/>
     <use transform="translate(1205.912606 0.765625)" xlink:href="#DejaVuSans-114"/>
     <use transform="translate(1279.496265 0.765625)" xlink:href="#DejaVuSans-115"/>
     <use transform="translate(1331.595875 0.765625)" xlink:href="#DejaVuSans-116"/>
     <use transform="translate(1370.804859 0.765625)" xlink:href="#DejaVuSans-97"/>
     <use transform="translate(1432.084156 0.765625)" xlink:href="#DejaVuSans-116"/>
     <use transform="translate(1471.29314 0.765625)" xlink:href="#DejaVuSans-101"/>
     <use transform="translate(1565.286956 0.765625)" xlink:href="#DejaVuSans-115"/>
     <use transform="translate(1649.856944 0.765625)" xlink:href="#DejaVuSans-119"/>
     <use transform="translate(1731.644054 0.765625)" xlink:href="#DejaVuSans-104"/>
     <use transform="translate(1795.02296 0.765625)" xlink:href="#DejaVuSans-101"/>
     <use transform="translate(1856.546397 0.765625)" xlink:href="#DejaVuSans-110"/>
     <use transform="translate(1952.395682 0.765625)" xlink:href="#DejaVuSans-72"/>
     <use transform="translate(2047.073416 0.765625)" xlink:href="#DejaVuSans-61"/>
     <use transform="translate(2150.344901 0.765625)" xlink:href="#DejaVuSans-50"/>
    </g>
   </g>
   <g id="text_6">
    <!-- $V_2^*(s) = \max_a \sum_{s'} P(s'|s,a)(R(s,a,s')+ \gamma V_1^*(s'))$ -->
    <g transform="translate(74.16 442.08)scale(0.28 -0.28)">
     <use transform="translate(0 0.546875)" xlink:href="#DejaVuSans-Oblique-86"/>
     <use transform="translate(89.062669 38.828125)scale(0.7)" xlink:href="#DejaVuSans-42"/>
     <use transform="translate(68.408203 -26.796875)scale(0.7)" xlink:href="#DejaVuSans-50"/>
     <use transform="translate(140.43474 0.546875)" xlink:href="#DejaVuSans-40"/>
     <use transform="translate(179.448411 0.546875)" xlink:href="#DejaVuSans-Oblique-115"/>
     <use transform="translate(231.548021 0.546875)" xlink:href="#DejaVuSans-41"/>
     <use transform="translate(290.044115 0.546875)" xlink:href="#DejaVuSans-61"/>
     <use transform="translate(393.315599 19.296875)" xlink:href="#DejaVuSans-109"/>
     <use transform="translate(490.727708 19.296875)" xlink:href="#DejaVuSans-97"/>
     <use transform="translate(552.007005 19.296875)" xlink:href="#DejaVuSans-120"/>
     <use transform="translate(484.315599 -40.075)scale(0.7)" xlink:href="#DejaVuSans-Oblique-97"/>
     <use transform="translate(611.186693 19.296875)" xlink:href="#DejaVuSansDisplay-8721"/>
     <use transform="translate(629.186693 -80.800313)scale(0.7)" xlink:href="#DejaVuSans-Oblique-115"/>
     <use transform="translate(668.911346 -54.003438)scale(0.49)" xlink:href="#Cmsy10-48"/>
     <use transform="translate(701.952318 0.546875)" xlink:href="#DejaVuSans-Oblique-80"/>
     <use transform="translate(762.255052 0.546875)" xlink:href="#DejaVuSans-40"/>
     <use transform="translate(801.268724 0.546875)" xlink:href="#DejaVuSans-Oblique-115"/>
     <use transform="translate(858.018229 38.828125)scale(0.7)" xlink:href="#Cmsy10-48"/>
     <use transform="translate(879.995768 0.546875)" xlink:href="#DejaVuSans-124"/>
     <use transform="translate(913.687174 0.546875)" xlink:href="#DejaVuSans-Oblique-115"/>
     <use transform="translate(965.786784 0.546875)" xlink:href="#DejaVuSans-44"/>
     <use transform="translate(1017.056315 0.546875)" xlink:href="#DejaVuSans-Oblique-97"/>
     <use transform="translate(1078.335612 0.546875)" xlink:href="#DejaVuSans-41"/>
     <use transform="translate(1117.349284 0.546875)" xlink:href="#DejaVuSans-40"/>
     <use transform="translate(1156.362956 0.546875)" xlink:href="#DejaVuSans-Oblique-82"/>
     <use transform="translate(1225.845378 0.546875)" xlink:href="#DejaVuSans-40"/>
     <use transform="translate(1264.859049 0.546875)" xlink:href="#DejaVuSans-Oblique-115"/>
     <use transform="translate(1316.958659 0.546875)" xlink:href="#DejaVuSans-44"/>
     <use transform="translate(1368.22819 0.546875)" xlink:href="#DejaVuSans-Oblique-97"/>
     <use transform="translate(1429.507487 0.546875)" xlink:href="#DejaVuSans-44"/>
     <use transform="translate(1480.777018 0.546875)" xlink:href="#DejaVuSans-Oblique-115"/>
     <use transform="translate(1537.526523 38.828125)scale(0.7)" xlink:href="#Cmsy10-48"/>
     <use transform="translate(1559.504062 0.546875)" xlink:href="#DejaVuSans-41"/>
     <use transform="translate(1618.000156 0.546875)" xlink:href="#DejaVuSans-43"/>
     <use transform="translate(1721.271641 0.546875)" xlink:href="#DejaVuSans-Oblique-947"/>
     <use transform="translate(1780.451328 0.546875)" xlink:href="#DejaVuSans-Oblique-86"/>
     <use transform="translate(1869.513997 38.828125)scale(0.7)" xlink:href="#DejaVuSans-42"/>
     <use transform="translate(1848.859531 -26.796875)scale(0.7)" xlink:href="#DejaVuSans-49"/>
     <use transform="translate(1920.886068 0.546875)" xlink:href="#DejaVuSans-40"/>
     <use transform="translate(1959.89974 0.546875)" xlink:href="#DejaVuSans-Oblique-115"/>
     <use transform="translate(2016.649245 38.828125)scale(0.7)" xlink:href="#Cmsy10-48"/>
     <use transform="translate(2038.626784 0.546875)" xlink:href="#DejaVuSans-41"/>
     <use transform="translate(2077.640456 0.546875)" xlink:href="#DejaVuSans-41"/>
    </g>
   </g>
   <g id="text_7">
    <!-- $V_k^*(s) = = \mathrm{optimal\ value\ for\ state\ s\ when\ H=k}$ -->
    <defs>
     <path d="M 18.3125 75.984375 
L 27.296875 75.984375 
L 18.703125 31.6875 
L 49.515625 54.6875 
L 61.1875 54.6875 
L 26.8125 28.515625 
L 51.90625 0 
L 41.015625 0 
L 17.671875 26.703125 
L 12.5 0 
L 3.515625 0 
z
" id="DejaVuSans-Oblique-107"/>
     <path d="M 9.078125 75.984375 
L 18.109375 75.984375 
L 18.109375 31.109375 
L 44.921875 54.6875 
L 56.390625 54.6875 
L 27.390625 29.109375 
L 57.625 0 
L 45.90625 0 
L 18.109375 26.703125 
L 18.109375 0 
L 9.078125 0 
z
" id="DejaVuSans-107"/>
    </defs>
    <g transform="translate(7.2 485.568)scale(0.28 -0.28)">
     <use transform="translate(0 0.701562)" xlink:href="#DejaVuSans-Oblique-86"/>
     <use transform="translate(89.062669 39.046875)scale(0.7)" xlink:href="#DejaVuSans-42"/>
     <use transform="translate(68.408203 -26.642188)scale(0.7)" xlink:href="#DejaVuSans-Oblique-107"/>
     <use transform="translate(140.43474 0.701562)" xlink:href="#DejaVuSans-40"/>
     <use transform="translate(179.448411 0.701562)" xlink:href="#DejaVuSans-Oblique-115"/>
     <use transform="translate(231.548021 0.701562)" xlink:href="#DejaVuSans-41"/>
     <use transform="translate(290.044115 0.701562)" xlink:href="#DejaVuSans-61"/>
     <use transform="translate(412.798021 0.701562)" xlink:href="#DejaVuSans-61"/>
     <use transform="translate(516.069505 0.701562)" xlink:href="#DejaVuSans-111"/>
     <use transform="translate(577.251146 0.701562)" xlink:href="#DejaVuSans-112"/>
     <use transform="translate(640.727708 0.701562)" xlink:href="#DejaVuSans-116"/>
     <use transform="translate(679.936693 0.701562)" xlink:href="#DejaVuSans-105"/>
     <use transform="translate(707.719896 0.701562)" xlink:href="#DejaVuSans-109"/>
     <use transform="translate(805.132005 0.701562)" xlink:href="#DejaVuSans-97"/>
     <use transform="translate(866.411302 0.701562)" xlink:href="#DejaVuSans-108"/>
     <use transform="translate(926.664884 0.701562)" xlink:href="#DejaVuSans-118"/>
     <use transform="translate(985.844571 0.701562)" xlink:href="#DejaVuSans-97"/>
     <use transform="translate(1047.123868 0.701562)" xlink:href="#DejaVuSans-108"/>
     <use transform="translate(1074.907071 0.701562)" xlink:href="#DejaVuSans-117"/>
     <use transform="translate(1138.285977 0.701562)" xlink:href="#DejaVuSans-101"/>
     <use transform="translate(1232.279793 0.701562)" xlink:href="#DejaVuSans-102"/>
     <use transform="translate(1267.484871 0.701562)" xlink:href="#DejaVuSans-111"/>
     <use transform="translate(1328.666512 0.701562)" xlink:href="#DejaVuSans-114"/>
     <use transform="translate(1402.250172 0.701562)" xlink:href="#DejaVuSans-115"/>
     <use transform="translate(1454.349781 0.701562)" xlink:href="#DejaVuSans-116"/>
     <use transform="translate(1493.558765 0.701562)" xlink:href="#DejaVuSans-97"/>
     <use transform="translate(1554.838062 0.701562)" xlink:href="#DejaVuSans-116"/>
     <use transform="translate(1594.047047 0.701562)" xlink:href="#DejaVuSans-101"/>
     <use transform="translate(1688.040863 0.701562)" xlink:href="#DejaVuSans-115"/>
     <use transform="translate(1772.61085 0.701562)" xlink:href="#DejaVuSans-119"/>
     <use transform="translate(1854.39796 0.701562)" xlink:href="#DejaVuSans-104"/>
     <use transform="translate(1917.776866 0.701562)" xlink:href="#DejaVuSans-101"/>
     <use transform="translate(1979.300304 0.701562)" xlink:href="#DejaVuSans-110"/>
     <use transform="translate(2075.149588 0.701562)" xlink:href="#DejaVuSans-72"/>
     <use transform="translate(2169.827323 0.701562)" xlink:href="#DejaVuSans-61"/>
     <use transform="translate(2273.098807 0.701562)" xlink:href="#DejaVuSans-107"/>
    </g>
   </g>
   <g id="text_8">
    <!-- $V_k^*(s) = \max_a \sum_{s'} P(s'|s,a)(R(s,a,s')+ \gamma V_{k-1}^*(s'))$ -->
    <defs>
     <path d="M 10.59375 35.5 
L 73.1875 35.5 
L 73.1875 27.203125 
L 10.59375 27.203125 
z
" id="DejaVuSans-8722"/>
    </defs>
    <g transform="translate(74.16 529.056)scale(0.28 -0.28)">
     <use transform="translate(0 0.546875)" xlink:href="#DejaVuSans-Oblique-86"/>
     <use transform="translate(89.062669 38.892187)scale(0.7)" xlink:href="#DejaVuSans-42"/>
     <use transform="translate(68.408203 -26.796875)scale(0.7)" xlink:href="#DejaVuSans-Oblique-107"/>
     <use transform="translate(140.43474 0.546875)" xlink:href="#DejaVuSans-40"/>
     <use transform="translate(179.448411 0.546875)" xlink:href="#DejaVuSans-Oblique-115"/>
     <use transform="translate(231.548021 0.546875)" xlink:href="#DejaVuSans-41"/>
     <use transform="translate(290.044115 0.546875)" xlink:href="#DejaVuSans-61"/>
     <use transform="translate(393.315599 19.296875)" xlink:href="#DejaVuSans-109"/>
     <use transform="translate(490.727708 19.296875)" xlink:href="#DejaVuSans-97"/>
     <use transform="translate(552.007005 19.296875)" xlink:href="#DejaVuSans-120"/>
     <use transform="translate(484.315599 -40.075)scale(0.7)" xlink:href="#DejaVuSans-Oblique-97"/>
     <use transform="translate(611.186693 19.296875)" xlink:href="#DejaVuSansDisplay-8721"/>
     <use transform="translate(629.186693 -80.800313)scale(0.7)" xlink:href="#DejaVuSans-Oblique-115"/>
     <use transform="translate(668.911346 -54.003438)scale(0.49)" xlink:href="#Cmsy10-48"/>
     <use transform="translate(701.952318 0.546875)" xlink:href="#DejaVuSans-Oblique-80"/>
     <use transform="translate(762.255052 0.546875)" xlink:href="#DejaVuSans-40"/>
     <use transform="translate(801.268724 0.546875)" xlink:href="#DejaVuSans-Oblique-115"/>
     <use transform="translate(858.018229 38.828125)scale(0.7)" xlink:href="#Cmsy10-48"/>
     <use transform="translate(879.995768 0.546875)" xlink:href="#DejaVuSans-124"/>
     <use transform="translate(913.687174 0.546875)" xlink:href="#DejaVuSans-Oblique-115"/>
     <use transform="translate(965.786784 0.546875)" xlink:href="#DejaVuSans-44"/>
     <use transform="translate(1017.056315 0.546875)" xlink:href="#DejaVuSans-Oblique-97"/>
     <use transform="translate(1078.335612 0.546875)" xlink:href="#DejaVuSans-41"/>
     <use transform="translate(1117.349284 0.546875)" xlink:href="#DejaVuSans-40"/>
     <use transform="translate(1156.362956 0.546875)" xlink:href="#DejaVuSans-Oblique-82"/>
     <use transform="translate(1225.845378 0.546875)" xlink:href="#DejaVuSans-40"/>
     <use transform="translate(1264.859049 0.546875)" xlink:href="#DejaVuSans-Oblique-115"/>
     <use transform="translate(1316.958659 0.546875)" xlink:href="#DejaVuSans-44"/>
     <use transform="translate(1368.22819 0.546875)" xlink:href="#DejaVuSans-Oblique-97"/>
     <use transform="translate(1429.507487 0.546875)" xlink:href="#DejaVuSans-44"/>
     <use transform="translate(1480.777018 0.546875)" xlink:href="#DejaVuSans-Oblique-115"/>
     <use transform="translate(1537.526523 38.828125)scale(0.7)" xlink:href="#Cmsy10-48"/>
     <use transform="translate(1559.504062 0.546875)" xlink:href="#DejaVuSans-41"/>
     <use transform="translate(1618.000156 0.546875)" xlink:href="#DejaVuSans-43"/>
     <use transform="translate(1721.271641 0.546875)" xlink:href="#DejaVuSans-Oblique-947"/>
     <use transform="translate(1780.451328 0.546875)" xlink:href="#DejaVuSans-Oblique-86"/>
     <use transform="translate(1869.513997 38.892187)scale(0.7)" xlink:href="#DejaVuSans-42"/>
     <use transform="translate(1848.859531 -26.796875)scale(0.7)" xlink:href="#DejaVuSans-Oblique-107"/>
     <use transform="translate(1903.034336 -26.796875)scale(0.7)" xlink:href="#DejaVuSans-8722"/>
     <use transform="translate(1975.324375 -26.796875)scale(0.7)" xlink:href="#DejaVuSans-49"/>
     <use transform="translate(2022.594883 0.546875)" xlink:href="#DejaVuSans-40"/>
     <use transform="translate(2061.608555 0.546875)" xlink:href="#DejaVuSans-Oblique-115"/>
     <use transform="translate(2118.35806 38.828125)scale(0.7)" xlink:href="#Cmsy10-48"/>
     <use transform="translate(2140.335599 0.546875)" xlink:href="#DejaVuSans-41"/>
     <use transform="translate(2179.349271 0.546875)" xlink:href="#DejaVuSans-41"/>
    </g>
   </g>
  </g>
 </g>
</svg>
