<?xml version="1.0" encoding="utf-8" standalone="no"?>
<!DOCTYPE svg PUBLIC "-//W3C//DTD SVG 1.1//EN"
  "http://www.w3.org/Graphics/SVG/1.1/DTD/svg11.dtd">
<!-- Created with matplotlib (https://matplotlib.org/) -->
<svg height="257.76pt" version="1.1" viewBox="0 0 708.8 257.76" width="708.8pt" xmlns="http://www.w3.org/2000/svg" xmlns:xlink="http://www.w3.org/1999/xlink">
 <defs>
  <style type="text/css">
*{stroke-linecap:butt;stroke-linejoin:round;}
  </style>
 </defs>
 <g id="figure_1">
  <g id="patch_1">
   <path d="M 0 257.76 
L 708.8 257.76 
L 708.8 0 
L 0 0 
z
" style="fill:#ffffff;"/>
  </g>
  <g id="axes_1">
   <g id="text_1">
    <!-- $V^*(s) = max_\pi \mathbb{E} \left( \sum_{t=0}^H \gamma^t R(s_t, a_t, s_{t+1})|\pi, s_0 = s\right)$ -->
    <defs>
     <path d="M 20.609375 0 
L 7.8125 72.90625 
L 17.484375 72.90625 
L 28.078125 10.203125 
L 63.484375 72.90625 
L 74.21875 72.90625 
L 32.078125 0 
z
" id="DejaVuSans-Oblique-86"/>
     <path d="M 47.015625 60.890625 
L 29.5 51.421875 
L 47.015625 41.890625 
L 44.1875 37.109375 
L 27.78125 47.015625 
L 27.78125 28.609375 
L 22.21875 28.609375 
L 22.21875 47.015625 
L 5.8125 37.109375 
L 2.984375 41.890625 
L 20.515625 51.421875 
L 2.984375 60.890625 
L 5.8125 65.71875 
L 22.21875 55.8125 
L 22.21875 74.21875 
L 27.78125 74.21875 
L 27.78125 55.8125 
L 44.1875 65.71875 
z
" id="DejaVuSans-42"/>
     <path d="M 31 75.875 
Q 24.46875 64.65625 21.28125 53.65625 
Q 18.109375 42.671875 18.109375 31.390625 
Q 18.109375 20.125 21.3125 9.0625 
Q 24.515625 -2 31 -13.1875 
L 23.1875 -13.1875 
Q 15.875 -1.703125 12.234375 9.375 
Q 8.59375 20.453125 8.59375 31.390625 
Q 8.59375 42.28125 12.203125 53.3125 
Q 15.828125 64.359375 23.1875 75.875 
z
" id="DejaVuSans-40"/>
     <path d="M 50 53.078125 
L 48.296875 44.578125 
Q 44.734375 46.53125 40.765625 47.5 
Q 36.8125 48.484375 32.625 48.484375 
Q 25.53125 48.484375 21.453125 46.0625 
Q 17.390625 43.65625 17.390625 39.5 
Q 17.390625 34.671875 26.859375 32.078125 
Q 27.59375 31.890625 27.9375 31.78125 
L 30.8125 30.90625 
Q 39.796875 28.421875 42.796875 25.6875 
Q 45.796875 22.953125 45.796875 18.21875 
Q 45.796875 9.515625 38.890625 4.046875 
Q 31.984375 -1.421875 20.796875 -1.421875 
Q 16.453125 -1.421875 11.671875 -0.578125 
Q 6.890625 0.25 1.125 2 
L 2.875 11.28125 
Q 7.8125 8.734375 12.59375 7.421875 
Q 17.390625 6.109375 21.78125 6.109375 
Q 28.375 6.109375 32.5 8.9375 
Q 36.625 11.765625 36.625 16.109375 
Q 36.625 20.796875 25.78125 23.6875 
L 24.859375 23.921875 
L 21.78125 24.703125 
Q 14.9375 26.515625 11.765625 29.46875 
Q 8.59375 32.421875 8.59375 37.015625 
Q 8.59375 45.75 15.15625 50.875 
Q 21.734375 56 33.015625 56 
Q 37.453125 56 41.671875 55.265625 
Q 45.90625 54.546875 50 53.078125 
z
" id="DejaVuSans-Oblique-115"/>
     <path d="M 8.015625 75.875 
L 15.828125 75.875 
Q 23.140625 64.359375 26.78125 53.3125 
Q 30.421875 42.28125 30.421875 31.390625 
Q 30.421875 20.453125 26.78125 9.375 
Q 23.140625 -1.703125 15.828125 -13.1875 
L 8.015625 -13.1875 
Q 14.5 -2 17.703125 9.0625 
Q 20.90625 20.125 20.90625 31.390625 
Q 20.90625 42.671875 17.703125 53.65625 
Q 14.5 64.65625 8.015625 75.875 
z
" id="DejaVuSans-41"/>
     <path d="M 10.59375 45.40625 
L 73.1875 45.40625 
L 73.1875 37.203125 
L 10.59375 37.203125 
z
M 10.59375 25.484375 
L 73.1875 25.484375 
L 73.1875 17.1875 
L 10.59375 17.1875 
z
" id="DejaVuSans-61"/>
     <path d="M 89.796875 33.015625 
L 83.40625 0 
L 74.421875 0 
L 80.71875 32.71875 
Q 81.109375 34.8125 81.296875 36.328125 
Q 81.5 37.84375 81.5 38.921875 
Q 81.5 43.3125 79.046875 45.75 
Q 76.609375 48.1875 72.21875 48.1875 
Q 65.671875 48.1875 60.546875 43.28125 
Q 55.421875 38.375 53.90625 30.515625 
L 47.90625 0 
L 38.921875 0 
L 45.3125 32.71875 
Q 45.703125 34.515625 45.890625 36.046875 
Q 46.09375 37.59375 46.09375 38.8125 
Q 46.09375 43.265625 43.65625 45.71875 
Q 41.21875 48.1875 36.921875 48.1875 
Q 30.28125 48.1875 25.140625 43.28125 
Q 20.015625 38.375 18.5 30.515625 
L 12.5 0 
L 3.515625 0 
L 14.203125 54.6875 
L 23.1875 54.6875 
L 21.484375 46.1875 
Q 25.140625 50.984375 30.046875 53.484375 
Q 34.96875 56 40.578125 56 
Q 46.53125 56 50.359375 52.875 
Q 54.203125 49.75 54.984375 44.1875 
Q 59.078125 49.953125 64.46875 52.96875 
Q 69.875 56 75.875 56 
Q 82.90625 56 86.734375 51.953125 
Q 90.578125 47.90625 90.578125 40.484375 
Q 90.578125 38.875 90.375 36.9375 
Q 90.1875 35.015625 89.796875 33.015625 
z
" id="DejaVuSans-Oblique-109"/>
     <path d="M 53.71875 31.203125 
L 47.609375 0 
L 38.625 0 
L 40.28125 8.296875 
Q 36.328125 3.421875 31.265625 1 
Q 26.21875 -1.421875 20.015625 -1.421875 
Q 13.03125 -1.421875 8.5625 2.84375 
Q 4.109375 7.125 4.109375 13.8125 
Q 4.109375 23.390625 11.75 28.953125 
Q 19.390625 34.515625 32.8125 34.515625 
L 45.3125 34.515625 
L 45.796875 36.921875 
Q 45.90625 37.3125 45.953125 37.765625 
Q 46 38.234375 46 39.203125 
Q 46 43.5625 42.453125 45.96875 
Q 38.921875 48.390625 32.515625 48.390625 
Q 28.125 48.390625 23.5 47.265625 
Q 18.890625 46.140625 14.015625 43.890625 
L 15.578125 52.203125 
Q 20.65625 54.109375 25.515625 55.046875 
Q 30.375 56 34.90625 56 
Q 44.578125 56 49.625 51.796875 
Q 54.6875 47.609375 54.6875 39.59375 
Q 54.6875 37.984375 54.4375 35.8125 
Q 54.203125 33.640625 53.71875 31.203125 
z
M 44 27.484375 
L 35.015625 27.484375 
Q 23.96875 27.484375 18.671875 24.53125 
Q 13.375 21.578125 13.375 15.375 
Q 13.375 11.078125 16.078125 8.640625 
Q 18.796875 6.203125 23.578125 6.203125 
Q 30.90625 6.203125 36.375 11.453125 
Q 41.84375 16.703125 43.609375 25.484375 
z
" id="DejaVuSans-Oblique-97"/>
     <path d="M 60.015625 54.6875 
L 34.90625 27.875 
L 50.296875 0 
L 39.984375 0 
L 28.421875 21.6875 
L 8.296875 0 
L -2.59375 0 
L 24.3125 28.8125 
L 10.015625 54.6875 
L 20.3125 54.6875 
L 30.8125 34.90625 
L 49.125 54.6875 
z
" id="DejaVuSans-Oblique-120"/>
     <path d="M 9.125 54.6875 
L 61.53125 54.6875 
L 59.765625 45.703125 
L 52.875 45.703125 
L 46.34375 12.109375 
Q 45.65625 8.59375 46.578125 7.03125 
Q 47.46875 5.515625 50.140625 5.515625 
Q 50.875 5.515625 51.953125 5.671875 
Q 53.078125 5.765625 53.421875 5.8125 
L 52.15625 -0.6875 
Q 50.34375 -1.3125 48.484375 -1.609375 
Q 46.578125 -1.90625 44.78125 -1.90625 
Q 38.921875 -1.90625 37.3125 1.265625 
Q 35.6875 4.5 37.359375 13.09375 
L 43.703125 45.703125 
L 23.53125 45.703125 
L 14.65625 0 
L 5.46875 0 
L 14.359375 45.703125 
L 7.375 45.703125 
z
" id="DejaVuSans-Oblique-960"/>
     <path d="M 66.40625 65.296875 
L 65.5 61.59375 
L 33.59375 61.59375 
L 26.703125 35.40625 
L 54.90625 35.40625 
L 53.796875 31.703125 
L 25.703125 31.703125 
L 18.203125 3.703125 
L 53.796875 3.703125 
L 53 0 
L 1.703125 0 
L 19.203125 65.296875 
z
M 29.90625 61.59375 
L 22.09375 61.59375 
L 6.5 3.703125 
L 14.5 3.703125 
z
" id="STIXNonUnicode-Italic-57686"/>
     <path d="M 73.203125 -45.296875 
L 73.203125 -50.90625 
Q 45.90625 -28.90625 29.15625 12.25 
Q 12.40625 53.40625 12.40625 102.90625 
Q 12.40625 152.296875 29.15625 193.4375 
Q 45.90625 234.59375 73.203125 256.59375 
L 73.203125 251 
Q 66 243.59375 59.546875 234.1875 
Q 53.09375 224.796875 46.6875 211.1875 
Q 40.296875 197.59375 35.6875 182 
Q 31.09375 166.40625 28.25 145.90625 
Q 25.40625 125.40625 25.40625 102.90625 
Q 25.40625 76.203125 29.65625 51.84375 
Q 33.90625 27.5 41 9.203125 
Q 48.09375 -9.09375 56.140625 -22.546875 
Q 64.203125 -36 73.203125 -45.296875 
z
" id="STIXSizeFourSym-Regular-40"/>
     <path d="M 16.890625 72.90625 
L 26.8125 72.90625 
L 21 43.015625 
L 56.78125 43.015625 
L 62.59375 72.90625 
L 72.515625 72.90625 
L 58.296875 0 
L 48.390625 0 
L 55.171875 34.71875 
L 19.390625 34.71875 
L 12.59375 0 
L 2.6875 0 
z
" id="DejaVuSans-Oblique-72"/>
     <path d="M 3.8125 101.703125 
L 90.671875 101.703125 
L 90.671875 88.375 
L 24.46875 88.375 
L 70.84375 38.875 
L 22.953125 -13.875 
L 92.484375 -13.875 
L 92.484375 -27.15625 
L 1.703125 -27.15625 
L 1.703125 -16.84375 
L 51.8125 38.484375 
L 3.8125 89.5 
z
" id="DejaVuSansDisplay-8721"/>
     <path d="M 42.28125 54.6875 
L 40.921875 47.703125 
L 23 47.703125 
L 17.1875 18.015625 
Q 16.890625 16.359375 16.75 15.234375 
Q 16.609375 14.109375 16.609375 13.484375 
Q 16.609375 10.359375 18.484375 8.9375 
Q 20.359375 7.515625 24.515625 7.515625 
L 33.59375 7.515625 
L 32.078125 0 
L 23.484375 0 
Q 15.484375 0 11.546875 3.125 
Q 7.625 6.25 7.625 12.59375 
Q 7.625 13.71875 7.765625 15.0625 
Q 7.90625 16.40625 8.203125 18.015625 
L 14.015625 47.703125 
L 6.390625 47.703125 
L 7.8125 54.6875 
L 15.28125 54.6875 
L 18.3125 70.21875 
L 27.296875 70.21875 
L 24.3125 54.6875 
z
" id="DejaVuSans-Oblique-116"/>
     <path d="M 31.78125 66.40625 
Q 24.171875 66.40625 20.328125 58.90625 
Q 16.5 51.421875 16.5 36.375 
Q 16.5 21.390625 20.328125 13.890625 
Q 24.171875 6.390625 31.78125 6.390625 
Q 39.453125 6.390625 43.28125 13.890625 
Q 47.125 21.390625 47.125 36.375 
Q 47.125 51.421875 43.28125 58.90625 
Q 39.453125 66.40625 31.78125 66.40625 
z
M 31.78125 74.21875 
Q 44.046875 74.21875 50.515625 64.515625 
Q 56.984375 54.828125 56.984375 36.375 
Q 56.984375 17.96875 50.515625 8.265625 
Q 44.046875 -1.421875 31.78125 -1.421875 
Q 19.53125 -1.421875 13.0625 8.265625 
Q 6.59375 17.96875 6.59375 36.375 
Q 6.59375 54.828125 13.0625 64.515625 
Q 19.53125 74.21875 31.78125 74.21875 
z
" id="DejaVuSans-48"/>
     <path d="M 23.296875 46.09375 
L 28.71875 12.3125 
L 54 54.6875 
L 63.53125 54.6875 
L 30.8125 0 
L 26.765625 -20.796875 
L 17.78125 -20.796875 
L 21.828125 0 
L 15.4375 40.828125 
Q 14.453125 46.96875 9.8125 46.96875 
L 7.421875 46.96875 
L 8.890625 54.6875 
L 12.3125 54.6875 
Q 21.921875 54.6875 23.296875 46.09375 
z
" id="DejaVuSans-Oblique-947"/>
     <path d="M 25.203125 64.796875 
L 20.21875 38.921875 
L 32.90625 38.921875 
Q 40.375 38.921875 44.984375 43.046875 
Q 49.609375 47.171875 49.609375 53.8125 
Q 49.609375 59.125 46.5 61.953125 
Q 43.40625 64.796875 37.59375 64.796875 
z
M 43.3125 35.015625 
Q 46.4375 34.28125 48.515625 31.390625 
Q 50.59375 28.515625 53.328125 19.921875 
L 59.515625 0 
L 49.125 0 
L 43.40625 18.703125 
Q 41.21875 25.921875 38.328125 28.359375 
Q 35.453125 30.8125 29.5 30.8125 
L 18.609375 30.8125 
L 12.59375 0 
L 2.6875 0 
L 16.890625 72.90625 
L 39.109375 72.90625 
Q 49.21875 72.90625 54.609375 68.328125 
Q 60.015625 63.765625 60.015625 55.171875 
Q 60.015625 47.5625 55.421875 41.984375 
Q 50.828125 36.421875 43.3125 35.015625 
z
" id="DejaVuSans-Oblique-82"/>
     <path d="M 11.71875 12.40625 
L 22.015625 12.40625 
L 22.015625 4 
L 14.015625 -11.625 
L 7.71875 -11.625 
L 11.71875 4 
z
" id="DejaVuSans-44"/>
     <path d="M 46 62.703125 
L 46 35.5 
L 73.1875 35.5 
L 73.1875 27.203125 
L 46 27.203125 
L 46 0 
L 37.796875 0 
L 37.796875 27.203125 
L 10.59375 27.203125 
L 10.59375 35.5 
L 37.796875 35.5 
L 37.796875 62.703125 
z
" id="DejaVuSans-43"/>
     <path d="M 12.40625 8.296875 
L 28.515625 8.296875 
L 28.515625 63.921875 
L 10.984375 60.40625 
L 10.984375 69.390625 
L 28.421875 72.90625 
L 38.28125 72.90625 
L 38.28125 8.296875 
L 54.390625 8.296875 
L 54.390625 0 
L 12.40625 0 
z
" id="DejaVuSans-49"/>
     <path d="M 21 76.421875 
L 21 -23.578125 
L 12.703125 -23.578125 
L 12.703125 76.421875 
z
" id="DejaVuSans-124"/>
     <path d="M 7.59375 251 
L 7.59375 256.59375 
Q 35 234.5 51.703125 193.59375 
Q 68.40625 152.703125 68.40625 102.90625 
Q 68.40625 53.796875 51.59375 12.390625 
Q 34.796875 -29 7.59375 -50.90625 
L 7.59375 -45.296875 
Q 14.703125 -38 21.203125 -28.34375 
Q 27.703125 -18.703125 34.046875 -4.890625 
Q 40.40625 8.90625 45.046875 24.703125 
Q 49.703125 40.5 52.546875 60.796875 
Q 55.40625 81.09375 55.40625 103 
Q 55.40625 125.09375 52.546875 145.5 
Q 49.703125 165.90625 45.046875 181.546875 
Q 40.40625 197.203125 34.046875 210.890625 
Q 27.703125 224.59375 21.203125 234.09375 
Q 14.703125 243.59375 7.59375 251 
z
" id="STIXSizeFourSym-Regular-41"/>
    </defs>
    <g transform="translate(7.2 224.64)scale(0.32 -0.32)">
     <use transform="translate(0 0.495313)" xlink:href="#DejaVuSans-Oblique-86"/>
     <use transform="translate(89.062669 38.776563)scale(0.7)" xlink:href="#DejaVuSans-42"/>
     <use transform="translate(140.43474 0.495313)" xlink:href="#DejaVuSans-40"/>
     <use transform="translate(179.448411 0.495313)" xlink:href="#DejaVuSans-Oblique-115"/>
     <use transform="translate(231.548021 0.495313)" xlink:href="#DejaVuSans-41"/>
     <use transform="translate(290.044115 0.495313)" xlink:href="#DejaVuSans-61"/>
     <use transform="translate(393.315599 0.495313)" xlink:href="#DejaVuSans-Oblique-109"/>
     <use transform="translate(490.727708 0.495313)" xlink:href="#DejaVuSans-Oblique-97"/>
     <use transform="translate(552.007005 0.495313)" xlink:href="#DejaVuSans-Oblique-120"/>
     <use transform="translate(611.186693 -15.910937)scale(0.7)" xlink:href="#DejaVuSans-Oblique-960"/>
     <use transform="translate(656.064622 0.495313)" xlink:href="#STIXNonUnicode-Italic-57686"/>
     <use transform="translate(719.964616 -34.8125)scale(0.879162)" xlink:href="#STIXSizeFourSym-Regular-40"/>
     <use transform="translate(845.967622 139.698438)scale(0.7)" xlink:href="#DejaVuSans-Oblique-72"/>
     <use transform="translate(824.967622 19.245313)" xlink:href="#DejaVuSansDisplay-8721"/>
     <use transform="translate(790.967622 -78.614062)scale(0.7)" xlink:href="#DejaVuSans-Oblique-116"/>
     <use transform="translate(832.051607 -78.614062)scale(0.7)" xlink:href="#DejaVuSans-61"/>
     <use transform="translate(904.341646 -78.614062)scale(0.7)" xlink:href="#DejaVuSans-48"/>
     <use transform="translate(948.877779 0.495313)" xlink:href="#DejaVuSans-Oblique-947"/>
     <use transform="translate(1012.523612 38.776563)scale(0.7)" xlink:href="#DejaVuSans-Oblique-116"/>
     <use transform="translate(1042.704276 0.495313)" xlink:href="#DejaVuSans-Oblique-82"/>
     <use transform="translate(1112.186698 0.495313)" xlink:href="#DejaVuSans-40"/>
     <use transform="translate(1151.20037 0.495313)" xlink:href="#DejaVuSans-Oblique-115"/>
     <use transform="translate(1203.299979 -15.910937)scale(0.7)" xlink:href="#DejaVuSans-Oblique-116"/>
     <use transform="translate(1233.480643 0.495313)" xlink:href="#DejaVuSans-44"/>
     <use transform="translate(1284.750174 0.495313)" xlink:href="#DejaVuSans-Oblique-97"/>
     <use transform="translate(1346.029471 -15.910937)scale(0.7)" xlink:href="#DejaVuSans-Oblique-116"/>
     <use transform="translate(1376.210135 0.495313)" xlink:href="#DejaVuSans-44"/>
     <use transform="translate(1427.479667 0.495313)" xlink:href="#DejaVuSans-Oblique-115"/>
     <use transform="translate(1479.579276 -15.910937)scale(0.7)" xlink:href="#DejaVuSans-Oblique-116"/>
     <use transform="translate(1520.66326 -15.910937)scale(0.7)" xlink:href="#DejaVuSans-43"/>
     <use transform="translate(1592.953299 -15.910937)scale(0.7)" xlink:href="#DejaVuSans-49"/>
     <use transform="translate(1640.223807 0.495313)" xlink:href="#DejaVuSans-41"/>
     <use transform="translate(1679.237479 0.495313)" xlink:href="#DejaVuSans-124"/>
     <use transform="translate(1712.928885 0.495313)" xlink:href="#DejaVuSans-Oblique-960"/>
     <use transform="translate(1773.133963 0.495313)" xlink:href="#DejaVuSans-44"/>
     <use transform="translate(1824.403495 0.495313)" xlink:href="#DejaVuSans-Oblique-115"/>
     <use transform="translate(1876.503104 -15.910937)scale(0.7)" xlink:href="#DejaVuSans-48"/>
     <use transform="translate(1943.256034 0.495313)" xlink:href="#DejaVuSans-61"/>
     <use transform="translate(2046.527518 0.495313)" xlink:href="#DejaVuSans-Oblique-115"/>
     <use transform="translate(2098.627127 -34.8125)scale(0.879162)" xlink:href="#STIXSizeFourSym-Regular-41"/>
    </g>
   </g>
  </g>
 </g>
</svg>
