<?xml version="1.0" encoding="utf-8" standalone="no"?>
<!DOCTYPE svg PUBLIC "-//W3C//DTD SVG 1.1//EN"
  "http://www.w3.org/Graphics/SVG/1.1/DTD/svg11.dtd">
<!-- Created with matplotlib (https://matplotlib.org/) -->
<svg height="231.84pt" version="1.1" viewBox="0 0 349.2 231.84" width="349.2pt" xmlns="http://www.w3.org/2000/svg" xmlns:xlink="http://www.w3.org/1999/xlink">
 <defs>
  <style type="text/css">
*{stroke-linecap:butt;stroke-linejoin:round;}
  </style>
 </defs>
 <g id="figure_1">
  <g id="patch_1">
   <path d="M 0 231.84 
L 349.2 231.84 
L 349.2 0 
L 0 0 
z
" style="fill:#ffffff;"/>
  </g>
  <g id="axes_1">
   <g id="patch_2">
    <path clip-path="url(#p9fd1719c6a)" d="M 55.028571 224.64 
L 102.857143 224.64 
L 102.857143 181.152 
L 55.028571 181.152 
z
" style="fill:#ffa0ff;stroke:#000000;stroke-linejoin:miter;"/>
   </g>
   <g id="patch_3">
    <path clip-path="url(#p9fd1719c6a)" d="M 102.857143 224.64 
L 150.685714 224.64 
L 150.685714 181.152 
L 102.857143 181.152 
z
" style="fill:#4040ff;stroke:#000000;stroke-linejoin:miter;"/>
   </g>
   <g id="patch_4">
    <path clip-path="url(#p9fd1719c6a)" d="M 150.685714 224.64 
L 198.514286 224.64 
L 198.514286 181.152 
L 150.685714 181.152 
z
" style="fill:#c0c0c0;stroke:#000000;stroke-linejoin:miter;"/>
   </g>
   <g id="patch_5">
    <path clip-path="url(#p9fd1719c6a)" d="M 198.514286 224.64 
L 246.342857 224.64 
L 246.342857 181.152 
L 198.514286 181.152 
z
" style="fill:#c0c0c0;stroke:#000000;stroke-linejoin:miter;"/>
   </g>
   <g id="patch_6">
    <path clip-path="url(#p9fd1719c6a)" d="M 246.342857 224.64 
L 294.171429 224.64 
L 294.171429 181.152 
L 246.342857 181.152 
z
" style="fill:#c0c0c0;stroke:#000000;stroke-linejoin:miter;"/>
   </g>
   <g id="patch_7">
    <path clip-path="url(#p9fd1719c6a)" d="M 294.171429 224.64 
L 342 224.64 
L 342 181.152 
L 294.171429 181.152 
z
" style="fill:#80ff80;stroke:#000000;stroke-linejoin:miter;"/>
   </g>
   <g id="patch_8">
    <path clip-path="url(#p9fd1719c6a)" d="M 55.028571 181.152 
L 102.857143 181.152 
L 102.857143 137.664 
L 55.028571 137.664 
z
" style="fill:#c0c0c0;stroke:#000000;stroke-linejoin:miter;"/>
   </g>
   <g id="patch_9">
    <path clip-path="url(#p9fd1719c6a)" d="M 102.857143 181.152 
L 150.685714 181.152 
L 150.685714 137.664 
L 102.857143 137.664 
z
" style="fill:#c0c0c0;stroke:#000000;stroke-linejoin:miter;"/>
   </g>
   <g id="patch_10">
    <path clip-path="url(#p9fd1719c6a)" d="M 150.685714 181.152 
L 198.514286 181.152 
L 198.514286 137.664 
L 150.685714 137.664 
z
" style="fill:#c0c0c0;stroke:#000000;stroke-linejoin:miter;"/>
   </g>
   <g id="patch_11">
    <path clip-path="url(#p9fd1719c6a)" d="M 198.514286 181.152 
L 246.342857 181.152 
L 246.342857 137.664 
L 198.514286 137.664 
z
" style="fill:#4040ff;stroke:#000000;stroke-linejoin:miter;"/>
   </g>
   <g id="patch_12">
    <path clip-path="url(#p9fd1719c6a)" d="M 246.342857 181.152 
L 294.171429 181.152 
L 294.171429 137.664 
L 246.342857 137.664 
z
" style="fill:#c0c0c0;stroke:#000000;stroke-linejoin:miter;"/>
   </g>
   <g id="patch_13">
    <path clip-path="url(#p9fd1719c6a)" d="M 294.171429 181.152 
L 342 181.152 
L 342 137.664 
L 294.171429 137.664 
z
" style="fill:#ff8080;stroke:#000000;stroke-linejoin:miter;"/>
   </g>
   <g id="patch_14">
    <path clip-path="url(#p9fd1719c6a)" d="M 55.028571 137.664 
L 102.857143 137.664 
L 102.857143 94.176 
L 55.028571 94.176 
z
" style="fill:#c0c0c0;stroke:#000000;stroke-linejoin:miter;"/>
   </g>
   <g id="patch_15">
    <path clip-path="url(#p9fd1719c6a)" d="M 102.857143 137.664 
L 150.685714 137.664 
L 150.685714 94.176 
L 102.857143 94.176 
z
" style="fill:#c0c0c0;stroke:#000000;stroke-linejoin:miter;"/>
   </g>
   <g id="patch_16">
    <path clip-path="url(#p9fd1719c6a)" d="M 150.685714 137.664 
L 198.514286 137.664 
L 198.514286 94.176 
L 150.685714 94.176 
z
" style="fill:#c0c0c0;stroke:#000000;stroke-linejoin:miter;"/>
   </g>
   <g id="patch_17">
    <path clip-path="url(#p9fd1719c6a)" d="M 198.514286 137.664 
L 246.342857 137.664 
L 246.342857 94.176 
L 198.514286 94.176 
z
" style="fill:#4040ff;stroke:#000000;stroke-linejoin:miter;"/>
   </g>
   <g id="patch_18">
    <path clip-path="url(#p9fd1719c6a)" d="M 246.342857 137.664 
L 294.171429 137.664 
L 294.171429 94.176 
L 246.342857 94.176 
z
" style="fill:#c0c0c0;stroke:#000000;stroke-linejoin:miter;"/>
   </g>
   <g id="patch_19">
    <path clip-path="url(#p9fd1719c6a)" d="M 294.171429 137.664 
L 342 137.664 
L 342 94.176 
L 294.171429 94.176 
z
" style="fill:#c0c0c0;stroke:#000000;stroke-linejoin:miter;"/>
   </g>
   <g id="patch_20">
    <path clip-path="url(#p9fd1719c6a)" d="M 55.028571 94.176 
L 102.857143 94.176 
L 102.857143 50.688 
L 55.028571 50.688 
z
" style="fill:#c0c0c0;stroke:#000000;stroke-linejoin:miter;"/>
   </g>
   <g id="patch_21">
    <path clip-path="url(#p9fd1719c6a)" d="M 102.857143 94.176 
L 150.685714 94.176 
L 150.685714 50.688 
L 102.857143 50.688 
z
" style="fill:#c0c0c0;stroke:#000000;stroke-linejoin:miter;"/>
   </g>
   <g id="patch_22">
    <path clip-path="url(#p9fd1719c6a)" d="M 150.685714 94.176 
L 198.514286 94.176 
L 198.514286 50.688 
L 150.685714 50.688 
z
" style="fill:#c0c0c0;stroke:#000000;stroke-linejoin:miter;"/>
   </g>
   <g id="patch_23">
    <path clip-path="url(#p9fd1719c6a)" d="M 198.514286 94.176 
L 246.342857 94.176 
L 246.342857 50.688 
L 198.514286 50.688 
z
" style="fill:#c0c0c0;stroke:#000000;stroke-linejoin:miter;"/>
   </g>
   <g id="patch_24">
    <path clip-path="url(#p9fd1719c6a)" d="M 246.342857 94.176 
L 294.171429 94.176 
L 294.171429 50.688 
L 246.342857 50.688 
z
" style="fill:#c0c0c0;stroke:#000000;stroke-linejoin:miter;"/>
   </g>
   <g id="patch_25">
    <path clip-path="url(#p9fd1719c6a)" d="M 294.171429 94.176 
L 342 94.176 
L 342 50.688 
L 294.171429 50.688 
z
" style="fill:#4040ff;stroke:#000000;stroke-linejoin:miter;"/>
   </g>
   <g id="patch_26">
    <path clip-path="url(#p9fd1719c6a)" d="M 78.942857 198.5472 
L 78.942857 207.2448 
L 98.074286 207.2448 
L 98.074286 215.9424 
L 102.857143 202.896 
L 98.074286 189.8496 
L 98.074286 198.5472 
z
" style="fill:#008000;stroke:#008000;stroke-linejoin:miter;"/>
   </g>
   <g id="patch_27">
    <path clip-path="url(#p9fd1719c6a)" d="M 174.6 198.5472 
L 174.6 207.2448 
L 193.731429 207.2448 
L 193.731429 215.9424 
L 198.514286 202.896 
L 193.731429 189.8496 
L 193.731429 198.5472 
z
" style="fill:#008000;stroke:#008000;stroke-linejoin:miter;"/>
   </g>
   <g id="patch_28">
    <path clip-path="url(#p9fd1719c6a)" d="M 222.428571 198.5472 
L 222.428571 207.2448 
L 241.56 207.2448 
L 241.56 215.9424 
L 246.342857 202.896 
L 241.56 189.8496 
L 241.56 198.5472 
z
" style="fill:#008000;stroke:#008000;stroke-linejoin:miter;"/>
   </g>
   <g id="patch_29">
    <path clip-path="url(#p9fd1719c6a)" d="M 270.257143 198.5472 
L 270.257143 207.2448 
L 289.388571 207.2448 
L 289.388571 215.9424 
L 294.171429 202.896 
L 289.388571 189.8496 
L 289.388571 198.5472 
z
" style="fill:#008000;stroke:#008000;stroke-linejoin:miter;"/>
   </g>
   <g id="patch_30">
    <path clip-path="url(#p9fd1719c6a)" d="M 83.725714 159.408 
L 74.16 159.408 
L 74.16 176.8032 
L 64.594286 176.8032 
L 78.942857 181.152 
L 93.291429 176.8032 
L 83.725714 176.8032 
z
" style="fill:#008000;stroke:#008000;stroke-linejoin:miter;"/>
   </g>
   <g id="patch_31">
    <path clip-path="url(#p9fd1719c6a)" d="M 121.988571 159.408 
L 131.554286 159.408 
L 131.554286 142.0128 
L 141.12 142.0128 
L 126.771429 137.664 
L 112.422857 142.0128 
L 121.988571 142.0128 
z
" style="fill:#008000;stroke:#008000;stroke-linejoin:miter;"/>
   </g>
   <g id="patch_32">
    <path clip-path="url(#p9fd1719c6a)" d="M 169.817143 159.408 
L 179.382857 159.408 
L 179.382857 142.0128 
L 188.948571 142.0128 
L 174.6 137.664 
L 160.251429 142.0128 
L 169.817143 142.0128 
z
" style="fill:#008000;stroke:#008000;stroke-linejoin:miter;"/>
   </g>
   <g id="patch_33">
    <path clip-path="url(#p9fd1719c6a)" d="M 270.257143 155.0592 
L 270.257143 163.7568 
L 289.388571 163.7568 
L 289.388571 172.4544 
L 294.171429 159.408 
L 289.388571 146.3616 
L 289.388571 155.0592 
z
" style="fill:#008000;stroke:#008000;stroke-linejoin:miter;"/>
   </g>
   <g id="patch_34">
    <path clip-path="url(#p9fd1719c6a)" d="M 74.16 115.92 
L 83.725714 115.92 
L 83.725714 98.5248 
L 93.291429 98.5248 
L 78.942857 94.176 
L 64.594286 98.5248 
L 74.16 98.5248 
z
" style="fill:#008000;stroke:#008000;stroke-linejoin:miter;"/>
   </g>
   <g id="patch_35">
    <path clip-path="url(#p9fd1719c6a)" d="M 126.771429 111.5712 
L 126.771429 120.2688 
L 145.902857 120.2688 
L 145.902857 128.9664 
L 150.685714 115.92 
L 145.902857 102.8736 
L 145.902857 111.5712 
z
" style="fill:#008000;stroke:#008000;stroke-linejoin:miter;"/>
   </g>
   <g id="patch_36">
    <path clip-path="url(#p9fd1719c6a)" d="M 169.817143 115.92 
L 179.382857 115.92 
L 179.382857 98.5248 
L 188.948571 98.5248 
L 174.6 94.176 
L 160.251429 98.5248 
L 169.817143 98.5248 
z
" style="fill:#008000;stroke:#008000;stroke-linejoin:miter;"/>
   </g>
   <g id="patch_37">
    <path clip-path="url(#p9fd1719c6a)" d="M 270.257143 120.2688 
L 270.257143 111.5712 
L 251.125714 111.5712 
L 251.125714 102.8736 
L 246.342857 115.92 
L 251.125714 128.9664 
L 251.125714 120.2688 
z
" style="fill:#008000;stroke:#008000;stroke-linejoin:miter;"/>
   </g>
   <g id="patch_38">
    <path clip-path="url(#p9fd1719c6a)" d="M 318.085714 120.2688 
L 318.085714 111.5712 
L 298.954286 111.5712 
L 298.954286 102.8736 
L 294.171429 115.92 
L 298.954286 128.9664 
L 298.954286 120.2688 
z
" style="fill:#008000;stroke:#008000;stroke-linejoin:miter;"/>
   </g>
   <g id="patch_39">
    <path clip-path="url(#p9fd1719c6a)" d="M 78.942857 68.0832 
L 78.942857 76.7808 
L 98.074286 76.7808 
L 98.074286 85.4784 
L 102.857143 72.432 
L 98.074286 59.3856 
L 98.074286 68.0832 
z
" style="fill:#008000;stroke:#008000;stroke-linejoin:miter;"/>
   </g>
   <g id="patch_40">
    <path clip-path="url(#p9fd1719c6a)" d="M 126.771429 68.0832 
L 126.771429 76.7808 
L 145.902857 76.7808 
L 145.902857 85.4784 
L 150.685714 72.432 
L 145.902857 59.3856 
L 145.902857 68.0832 
z
" style="fill:#008000;stroke:#008000;stroke-linejoin:miter;"/>
   </g>
   <g id="patch_41">
    <path clip-path="url(#p9fd1719c6a)" d="M 174.6 68.0832 
L 174.6 76.7808 
L 193.731429 76.7808 
L 193.731429 85.4784 
L 198.514286 72.432 
L 193.731429 59.3856 
L 193.731429 68.0832 
z
" style="fill:#008000;stroke:#008000;stroke-linejoin:miter;"/>
   </g>
   <g id="patch_42">
    <path clip-path="url(#p9fd1719c6a)" d="M 222.428571 76.7808 
L 222.428571 68.0832 
L 203.297143 68.0832 
L 203.297143 59.3856 
L 198.514286 72.432 
L 203.297143 85.4784 
L 203.297143 76.7808 
z
" style="fill:#008000;stroke:#008000;stroke-linejoin:miter;"/>
   </g>
   <g id="patch_43">
    <path clip-path="url(#p9fd1719c6a)" d="M 275.04 72.432 
L 265.474286 72.432 
L 265.474286 89.8272 
L 255.908571 89.8272 
L 270.257143 94.176 
L 284.605714 89.8272 
L 275.04 89.8272 
z
" style="fill:#008000;stroke:#008000;stroke-linejoin:miter;"/>
   </g>
   <g id="text_1">
    <!--  1 -->
    <defs>
     <path id="DejaVuSans-32"/>
     <path d="M 12.40625 8.296875 
L 28.515625 8.296875 
L 28.515625 63.921875 
L 10.984375 60.40625 
L 10.984375 69.390625 
L 28.421875 72.90625 
L 38.28125 72.90625 
L 38.28125 8.296875 
L 54.390625 8.296875 
L 54.390625 0 
L 12.40625 0 
z
" id="DejaVuSans-49"/>
    </defs>
    <g transform="translate(35.897143 213.768)scale(0.18 -0.18)">
     <use xlink:href="#DejaVuSans-32"/>
     <use x="31.787109" xlink:href="#DejaVuSans-49"/>
    </g>
   </g>
   <g id="text_2">
    <!--  2 -->
    <defs>
     <path d="M 19.1875 8.296875 
L 53.609375 8.296875 
L 53.609375 0 
L 7.328125 0 
L 7.328125 8.296875 
Q 12.9375 14.109375 22.625 23.890625 
Q 32.328125 33.6875 34.8125 36.53125 
Q 39.546875 41.84375 41.421875 45.53125 
Q 43.3125 49.21875 43.3125 52.78125 
Q 43.3125 58.59375 39.234375 62.25 
Q 35.15625 65.921875 28.609375 65.921875 
Q 23.96875 65.921875 18.8125 64.3125 
Q 13.671875 62.703125 7.8125 59.421875 
L 7.8125 69.390625 
Q 13.765625 71.78125 18.9375 73 
Q 24.125 74.21875 28.421875 74.21875 
Q 39.75 74.21875 46.484375 68.546875 
Q 53.21875 62.890625 53.21875 53.421875 
Q 53.21875 48.921875 51.53125 44.890625 
Q 49.859375 40.875 45.40625 35.40625 
Q 44.1875 33.984375 37.640625 27.21875 
Q 31.109375 20.453125 19.1875 8.296875 
z
" id="DejaVuSans-50"/>
    </defs>
    <g transform="translate(35.897143 170.28)scale(0.18 -0.18)">
     <use xlink:href="#DejaVuSans-32"/>
     <use x="31.787109" xlink:href="#DejaVuSans-50"/>
    </g>
   </g>
   <g id="text_3">
    <!--  3 -->
    <defs>
     <path d="M 40.578125 39.3125 
Q 47.65625 37.796875 51.625 33 
Q 55.609375 28.21875 55.609375 21.1875 
Q 55.609375 10.40625 48.1875 4.484375 
Q 40.765625 -1.421875 27.09375 -1.421875 
Q 22.515625 -1.421875 17.65625 -0.515625 
Q 12.796875 0.390625 7.625 2.203125 
L 7.625 11.71875 
Q 11.71875 9.328125 16.59375 8.109375 
Q 21.484375 6.890625 26.8125 6.890625 
Q 36.078125 6.890625 40.9375 10.546875 
Q 45.796875 14.203125 45.796875 21.1875 
Q 45.796875 27.640625 41.28125 31.265625 
Q 36.765625 34.90625 28.71875 34.90625 
L 20.21875 34.90625 
L 20.21875 43.015625 
L 29.109375 43.015625 
Q 36.375 43.015625 40.234375 45.921875 
Q 44.09375 48.828125 44.09375 54.296875 
Q 44.09375 59.90625 40.109375 62.90625 
Q 36.140625 65.921875 28.71875 65.921875 
Q 24.65625 65.921875 20.015625 65.03125 
Q 15.375 64.15625 9.8125 62.3125 
L 9.8125 71.09375 
Q 15.4375 72.65625 20.34375 73.4375 
Q 25.25 74.21875 29.59375 74.21875 
Q 40.828125 74.21875 47.359375 69.109375 
Q 53.90625 64.015625 53.90625 55.328125 
Q 53.90625 49.265625 50.4375 45.09375 
Q 46.96875 40.921875 40.578125 39.3125 
z
" id="DejaVuSans-51"/>
    </defs>
    <g transform="translate(35.897143 126.792)scale(0.18 -0.18)">
     <use xlink:href="#DejaVuSans-32"/>
     <use x="31.787109" xlink:href="#DejaVuSans-51"/>
    </g>
   </g>
   <g id="text_4">
    <!--  4 -->
    <defs>
     <path d="M 37.796875 64.3125 
L 12.890625 25.390625 
L 37.796875 25.390625 
z
M 35.203125 72.90625 
L 47.609375 72.90625 
L 47.609375 25.390625 
L 58.015625 25.390625 
L 58.015625 17.1875 
L 47.609375 17.1875 
L 47.609375 0 
L 37.796875 0 
L 37.796875 17.1875 
L 4.890625 17.1875 
L 4.890625 26.703125 
z
" id="DejaVuSans-52"/>
    </defs>
    <g transform="translate(35.897143 83.304)scale(0.18 -0.18)">
     <use xlink:href="#DejaVuSans-32"/>
     <use x="31.787109" xlink:href="#DejaVuSans-52"/>
    </g>
   </g>
   <g id="text_5">
    <!-- A -->
    <defs>
     <path d="M 34.1875 63.1875 
L 20.796875 26.90625 
L 47.609375 26.90625 
z
M 28.609375 72.90625 
L 39.796875 72.90625 
L 67.578125 0 
L 57.328125 0 
L 50.6875 18.703125 
L 17.828125 18.703125 
L 11.1875 0 
L 0.78125 0 
z
" id="DejaVuSans-65"/>
    </defs>
    <g transform="translate(66.985714 46.3392)scale(0.18 -0.18)">
     <use xlink:href="#DejaVuSans-65"/>
    </g>
   </g>
   <g id="text_6">
    <!-- B -->
    <defs>
     <path d="M 19.671875 34.8125 
L 19.671875 8.109375 
L 35.5 8.109375 
Q 43.453125 8.109375 47.28125 11.40625 
Q 51.125 14.703125 51.125 21.484375 
Q 51.125 28.328125 47.28125 31.5625 
Q 43.453125 34.8125 35.5 34.8125 
z
M 19.671875 64.796875 
L 19.671875 42.828125 
L 34.28125 42.828125 
Q 41.5 42.828125 45.03125 45.53125 
Q 48.578125 48.25 48.578125 53.8125 
Q 48.578125 59.328125 45.03125 62.0625 
Q 41.5 64.796875 34.28125 64.796875 
z
M 9.8125 72.90625 
L 35.015625 72.90625 
Q 46.296875 72.90625 52.390625 68.21875 
Q 58.5 63.53125 58.5 54.890625 
Q 58.5 48.1875 55.375 44.234375 
Q 52.25 40.28125 46.1875 39.3125 
Q 53.46875 37.75 57.5 32.78125 
Q 61.53125 27.828125 61.53125 20.40625 
Q 61.53125 10.640625 54.890625 5.3125 
Q 48.25 0 35.984375 0 
L 9.8125 0 
z
" id="DejaVuSans-66"/>
    </defs>
    <g transform="translate(114.814286 46.3392)scale(0.18 -0.18)">
     <use xlink:href="#DejaVuSans-66"/>
    </g>
   </g>
   <g id="text_7">
    <!-- C -->
    <defs>
     <path d="M 64.40625 67.28125 
L 64.40625 56.890625 
Q 59.421875 61.53125 53.78125 63.8125 
Q 48.140625 66.109375 41.796875 66.109375 
Q 29.296875 66.109375 22.65625 58.46875 
Q 16.015625 50.828125 16.015625 36.375 
Q 16.015625 21.96875 22.65625 14.328125 
Q 29.296875 6.6875 41.796875 6.6875 
Q 48.140625 6.6875 53.78125 8.984375 
Q 59.421875 11.28125 64.40625 15.921875 
L 64.40625 5.609375 
Q 59.234375 2.09375 53.4375 0.328125 
Q 47.65625 -1.421875 41.21875 -1.421875 
Q 24.65625 -1.421875 15.125 8.703125 
Q 5.609375 18.84375 5.609375 36.375 
Q 5.609375 53.953125 15.125 64.078125 
Q 24.65625 74.21875 41.21875 74.21875 
Q 47.75 74.21875 53.53125 72.484375 
Q 59.328125 70.75 64.40625 67.28125 
z
" id="DejaVuSans-67"/>
    </defs>
    <g transform="translate(162.642857 46.3392)scale(0.18 -0.18)">
     <use xlink:href="#DejaVuSans-67"/>
    </g>
   </g>
   <g id="text_8">
    <!-- D -->
    <defs>
     <path d="M 19.671875 64.796875 
L 19.671875 8.109375 
L 31.59375 8.109375 
Q 46.6875 8.109375 53.6875 14.9375 
Q 60.6875 21.78125 60.6875 36.53125 
Q 60.6875 51.171875 53.6875 57.984375 
Q 46.6875 64.796875 31.59375 64.796875 
z
M 9.8125 72.90625 
L 30.078125 72.90625 
Q 51.265625 72.90625 61.171875 64.09375 
Q 71.09375 55.28125 71.09375 36.53125 
Q 71.09375 17.671875 61.125 8.828125 
Q 51.171875 0 30.078125 0 
L 9.8125 0 
z
" id="DejaVuSans-68"/>
    </defs>
    <g transform="translate(210.471429 46.3392)scale(0.18 -0.18)">
     <use xlink:href="#DejaVuSans-68"/>
    </g>
   </g>
   <g id="text_9">
    <!-- E -->
    <defs>
     <path d="M 9.8125 72.90625 
L 55.90625 72.90625 
L 55.90625 64.59375 
L 19.671875 64.59375 
L 19.671875 43.015625 
L 54.390625 43.015625 
L 54.390625 34.71875 
L 19.671875 34.71875 
L 19.671875 8.296875 
L 56.78125 8.296875 
L 56.78125 0 
L 9.8125 0 
z
" id="DejaVuSans-69"/>
    </defs>
    <g transform="translate(258.3 46.3392)scale(0.18 -0.18)">
     <use xlink:href="#DejaVuSans-69"/>
    </g>
   </g>
   <g id="text_10">
    <!-- F -->
    <defs>
     <path d="M 9.8125 72.90625 
L 51.703125 72.90625 
L 51.703125 64.59375 
L 19.671875 64.59375 
L 19.671875 43.109375 
L 48.578125 43.109375 
L 48.578125 34.8125 
L 19.671875 34.8125 
L 19.671875 0 
L 9.8125 0 
z
" id="DejaVuSans-70"/>
    </defs>
    <g transform="translate(306.128571 46.3392)scale(0.18 -0.18)">
     <use xlink:href="#DejaVuSans-70"/>
    </g>
   </g>
   <g id="text_11">
    <!-- Start -->
    <defs>
     <path d="M 53.515625 70.515625 
L 53.515625 60.890625 
Q 47.90625 63.578125 42.921875 64.890625 
Q 37.9375 66.21875 33.296875 66.21875 
Q 25.25 66.21875 20.875 63.09375 
Q 16.5 59.96875 16.5 54.203125 
Q 16.5 49.359375 19.40625 46.890625 
Q 22.3125 44.4375 30.421875 42.921875 
L 36.375 41.703125 
Q 47.40625 39.59375 52.65625 34.296875 
Q 57.90625 29 57.90625 20.125 
Q 57.90625 9.515625 50.796875 4.046875 
Q 43.703125 -1.421875 29.984375 -1.421875 
Q 24.8125 -1.421875 18.96875 -0.25 
Q 13.140625 0.921875 6.890625 3.21875 
L 6.890625 13.375 
Q 12.890625 10.015625 18.65625 8.296875 
Q 24.421875 6.59375 29.984375 6.59375 
Q 38.421875 6.59375 43.015625 9.90625 
Q 47.609375 13.234375 47.609375 19.390625 
Q 47.609375 24.75 44.3125 27.78125 
Q 41.015625 30.8125 33.5 32.328125 
L 27.484375 33.5 
Q 16.453125 35.6875 11.515625 40.375 
Q 6.59375 45.0625 6.59375 53.421875 
Q 6.59375 63.09375 13.40625 68.65625 
Q 20.21875 74.21875 32.171875 74.21875 
Q 37.3125 74.21875 42.625 73.28125 
Q 47.953125 72.359375 53.515625 70.515625 
z
" id="DejaVuSans-83"/>
     <path d="M 18.3125 70.21875 
L 18.3125 54.6875 
L 36.8125 54.6875 
L 36.8125 47.703125 
L 18.3125 47.703125 
L 18.3125 18.015625 
Q 18.3125 11.328125 20.140625 9.421875 
Q 21.96875 7.515625 27.59375 7.515625 
L 36.8125 7.515625 
L 36.8125 0 
L 27.59375 0 
Q 17.1875 0 13.234375 3.875 
Q 9.28125 7.765625 9.28125 18.015625 
L 9.28125 47.703125 
L 2.6875 47.703125 
L 2.6875 54.6875 
L 9.28125 54.6875 
L 9.28125 70.21875 
z
" id="DejaVuSans-116"/>
     <path d="M 34.28125 27.484375 
Q 23.390625 27.484375 19.1875 25 
Q 14.984375 22.515625 14.984375 16.5 
Q 14.984375 11.71875 18.140625 8.90625 
Q 21.296875 6.109375 26.703125 6.109375 
Q 34.1875 6.109375 38.703125 11.40625 
Q 43.21875 16.703125 43.21875 25.484375 
L 43.21875 27.484375 
z
M 52.203125 31.203125 
L 52.203125 0 
L 43.21875 0 
L 43.21875 8.296875 
Q 40.140625 3.328125 35.546875 0.953125 
Q 30.953125 -1.421875 24.3125 -1.421875 
Q 15.921875 -1.421875 10.953125 3.296875 
Q 6 8.015625 6 15.921875 
Q 6 25.140625 12.171875 29.828125 
Q 18.359375 34.515625 30.609375 34.515625 
L 43.21875 34.515625 
L 43.21875 35.40625 
Q 43.21875 41.609375 39.140625 45 
Q 35.0625 48.390625 27.6875 48.390625 
Q 23 48.390625 18.546875 47.265625 
Q 14.109375 46.140625 10.015625 43.890625 
L 10.015625 52.203125 
Q 14.9375 54.109375 19.578125 55.046875 
Q 24.21875 56 28.609375 56 
Q 40.484375 56 46.34375 49.84375 
Q 52.203125 43.703125 52.203125 31.203125 
z
" id="DejaVuSans-97"/>
     <path d="M 41.109375 46.296875 
Q 39.59375 47.171875 37.8125 47.578125 
Q 36.03125 48 33.890625 48 
Q 26.265625 48 22.1875 43.046875 
Q 18.109375 38.09375 18.109375 28.8125 
L 18.109375 0 
L 9.078125 0 
L 9.078125 54.6875 
L 18.109375 54.6875 
L 18.109375 46.1875 
Q 20.953125 51.171875 25.484375 53.578125 
Q 30.03125 56 36.53125 56 
Q 37.453125 56 38.578125 55.875 
Q 39.703125 55.765625 41.0625 55.515625 
z
" id="DejaVuSans-114"/>
    </defs>
    <g transform="translate(55.028571 211.5936)scale(0.18 -0.18)">
     <use xlink:href="#DejaVuSans-83"/>
     <use x="63.476562" xlink:href="#DejaVuSans-116"/>
     <use x="102.685547" xlink:href="#DejaVuSans-97"/>
     <use x="163.964844" xlink:href="#DejaVuSans-114"/>
     <use x="205.078125" xlink:href="#DejaVuSans-116"/>
    </g>
   </g>
   <g id="text_12">
    <!-- +1 -->
    <defs>
     <path d="M 46 62.703125 
L 46 35.5 
L 73.1875 35.5 
L 73.1875 27.203125 
L 46 27.203125 
L 46 0 
L 37.796875 0 
L 37.796875 27.203125 
L 10.59375 27.203125 
L 10.59375 35.5 
L 37.796875 35.5 
L 37.796875 62.703125 
z
" id="DejaVuSans-43"/>
    </defs>
    <g transform="translate(308.52 211.5936)scale(0.18 -0.18)">
     <use xlink:href="#DejaVuSans-43"/>
     <use x="83.789062" xlink:href="#DejaVuSans-49"/>
    </g>
   </g>
   <g id="text_13">
    <!-- -1 -->
    <defs>
     <path d="M 4.890625 31.390625 
L 31.203125 31.390625 
L 31.203125 23.390625 
L 4.890625 23.390625 
z
" id="DejaVuSans-45"/>
    </defs>
    <g transform="translate(308.52 168.1056)scale(0.18 -0.18)">
     <use xlink:href="#DejaVuSans-45"/>
     <use x="36.083984" xlink:href="#DejaVuSans-49"/>
    </g>
   </g>
  </g>
 </g>
 <defs>
  <clipPath id="p9fd1719c6a">
   <rect height="217.44" width="334.8" x="7.2" y="7.2"/>
  </clipPath>
 </defs>
</svg>
